<?xml version="1.0" encoding="utf-8"?>
<!-- Generator: Adobe Illustrator 16.0.0, SVG Export Plug-In . SVG Version: 6.00 Build 0)  -->
<!DOCTYPE svg PUBLIC "-//W3C//DTD SVG 1.1//EN" "http://www.w3.org/Graphics/SVG/1.1/DTD/svg11.dtd">
<svg version="1.1" id="Layer_1" xmlns="http://www.w3.org/2000/svg" xmlns:xlink="http://www.w3.org/1999/xlink" x="0px" y="0px"
	 width="122.688px" height="95.246px" viewBox="0 0 122.688 95.246" enable-background="new 0 0 122.688 95.246"
	 xml:space="preserve">
<path fill="#5D4777" stroke="#5D4777" stroke-width="0.25" stroke-miterlimit="10" d="M80.273,79.193
	c-8.859,3.84-17.689,7.66-26.6,11.51c-0.73-1.39,0.15-1.97,0.94-2.53c2.44-1.74,4.65-3.689,6.25-6.27c1.02-1.65,1.27-3.29,0.43-5.09
	c-0.74-1.591-1.39-3.221-2.08-4.82c-2.66-6.16-5.37-12.311-7.98-18.49c-1.53-3.64-4.02-5.94-8.03-6.43
	c-1.01-0.13-2.04-0.29-2.98-0.65c-2.23-0.85-4.52-1.65-6.6-2.78c-4.75-2.6-7.05-6.97-8.44-12.03c-1.49-5.41-1.7-10.92-1.76-16.46
	c-0.01-0.95-0.05-1.89-0.08-2.84c-1.05,1.79-1.81,3.63-2.69,5.41c-0.46,0.93-1.05,1.84-1.74,2.62c-0.67,0.76-1.59,1.23-2.61,0.54
	c-0.98-0.67-1-1.66-0.57-2.62c0.37-0.8,0.85-1.58,1.39-2.28c0.68-0.86,1.41-1.69,2.22-2.43c1.81-1.62,3.47-3.55,5.56-4.68
	c5.56-3.02,11.62-4.88,17.66-6.72c0.93-0.28,1.66-0.14,2.32,0.55c4.73,4.94,9.33,10,12.73,15.99c3.77,6.65,4.12,13.26-0.05,19.99
	c-1.52,2.46-2.49,5.27-3.6,7.97c-0.58,1.41-0.34,2.88,0.27,4.28c0.99,2.32,1.96,4.65,2.97,6.96c2.3,5.211,4.48,10.48,6.97,15.601
	c2.08,4.26,6.35,6.03,10.97,5c0.99-0.23,1.97-0.49,2.98-0.66C79.124,77.663,79.853,78.073,80.273,79.193z"/>
<path fill="#5D4777" stroke="#5D4777" stroke-width="0.25" stroke-miterlimit="10" d="M14.564,23.922
	c-0.36,0.66-0.71,1.32-1.08,1.97c-2.12,3.71-4.22,7.43-6.38,11.11c-0.46,0.79-1.05,1.63-1.79,2.1c-0.57,0.36-1.6,0.44-2.22,0.17
	c-0.86-0.37-0.81-1.38-0.45-2.15c0.37-0.81,0.83-1.61,1.41-2.27c2.18-2.52,4.4-5.02,6.65-7.47c1.16-1.26,2.44-2.42,3.66-3.63
	C14.433,23.813,14.504,23.863,14.564,23.922z"/>
<path fill="#5D4777" stroke="#5D4777" stroke-width="0.25" stroke-miterlimit="10" d="M61.871,84.727
	c2.971-1.28,5.939-2.563,9.226-3.979c-3.196-0.633-5.713-1.942-7.721-4.31C64.716,79.55,63.632,82.13,61.871,84.727z"/>
<g id="Layer_1_1_">
	<g>
		<path fill="#FFFFFF" d="M88.996,58.019v22.148H77.711V58.019c-0.188-3.305-1.604-5.004-4.254-5.098h-0.633
			c-2.859,0.094-4.289,2.074-4.289,5.94v21.306h-11.25V58.862c0-10.194,5.18-15.574,15.539-16.137h0.633
			c4.125,0.234,7.431,1.219,9.914,2.953c2.461-1.734,5.754-2.719,9.879-2.953h0.633c10.359,0.563,15.539,5.94,15.539,16.137v21.306
			h-11.25V58.862c0-3.866-1.43-5.848-4.289-5.94H93.25C90.602,53.015,89.184,54.714,88.996,58.019z"/>
		<path fill="#FFFFFF" d="M111.215,30.245l11.216-0.035v49.852l-11.216,0.141V30.245z"/>
	</g>
	<g>
		<path fill="#FFFFFF" d="M43.695,83.431l1.869-0.006v8.309l-1.869,0.023V83.431z"/>
		<path fill="#FFFFFF" d="M45.857,83.431l1.869-0.006v8.309l-1.869,0.023V83.431z"/>
		<path fill="#FFFFFF" d="M51.096,87.31c-0.099-0.066-0.226-0.104-0.382-0.111H50.61c-0.478,0.02-0.715,0.352-0.715,0.996v3.551
			H48.02v-3.551c0-1.707,0.862-2.604,2.59-2.689h0.104c0.129,0.004,0.257,0.017,0.382,0.035V87.31z"/>
		<path fill="#FFFFFF" d="M54.184,87.345h-1.236l0.422-1.605h0.814v-2.309l1.869,0.012v2.297h1.241l-0.416,1.605h-0.825v1.986
			c0,0.53,0.331,0.797,0.995,0.797c0.216,0,0.38-0.025,0.492-0.076l-0.539,1.863c-0.098,0.016-0.192,0.022-0.287,0.022
			c-0.559,0-1.022-0.09-1.395-0.271c-0.375-0.18-0.658-0.451-0.85-0.813c-0.191-0.358-0.287-0.817-0.287-1.377L54.184,87.345
			L54.184,87.345z"/>
		<path fill="#FFFFFF" d="M64.156,87.438c0.176,0.396,0.264,0.815,0.264,1.267v0.053c0,0.02-0.002,0.041-0.006,0.063l-0.012,0.101
			h-0.728v0.012h-4.03c0.047,0.328,0.188,0.611,0.428,0.85c0.301,0.297,0.652,0.445,1.055,0.445c0.406,0,0.758-0.148,1.056-0.445
			l0.012-0.012l0.018-0.023l0.019-0.018l0.012-0.018l1.008,1.44c-0.289,0.234-0.582,0.412-0.879,0.533
			c-0.397,0.155-0.813,0.233-1.242,0.233c-0.582,0-1.123-0.139-1.623-0.416c-0.512-0.28-0.916-0.666-1.213-1.153
			c-0.305-0.488-0.457-1.037-0.457-1.646c0-0.457,0.088-0.879,0.265-1.267c0.176-0.392,0.418-0.729,0.727-1.021
			c0.313-0.297,0.664-0.521,1.055-0.674c0.402-0.156,0.818-0.234,1.248-0.234c0.431,0,0.845,0.078,1.242,0.234
			c0.396,0.152,0.748,0.375,1.062,0.668C63.738,86.699,63.98,87.041,64.156,87.438z M61.127,87.205
			c-0.262,0-0.508,0.065-0.737,0.198c-0.142,0.087-0.277,0.207-0.41,0.363h2.297c-0.133-0.156-0.271-0.276-0.41-0.363
			C61.635,87.271,61.389,87.205,61.127,87.205z"/>
		<path fill="#FFFFFF" d="M69.33,87.556c-0.168-0.141-0.352-0.246-0.551-0.316c-0.207-0.07-0.426-0.105-0.656-0.105
			c-0.43,0-0.793,0.14-1.09,0.416c-0.301,0.277-0.451,0.621-0.451,1.031c0,0.32,0.064,0.607,0.193,0.861
			c0.125,0.254,0.311,0.455,0.557,0.604c0.238,0.152,0.515,0.229,0.826,0.229c0.461,0,0.855-0.146,1.184-0.438l1.025,1.301
			c-0.148,0.156-0.354,0.295-0.621,0.416c-0.27,0.121-0.547,0.211-0.832,0.27s-0.549,0.088-0.791,0.088
			c-0.68,0-1.279-0.143-1.799-0.428c-0.52-0.289-0.918-0.668-1.195-1.137c-0.276-0.477-0.416-0.986-0.416-1.529
			c0-0.496,0.084-0.945,0.252-1.348c0.173-0.41,0.408-0.762,0.709-1.055c0.298-0.285,0.658-0.511,1.084-0.674
			c0.423-0.16,0.877-0.24,1.365-0.24c0.398,0,0.787,0.063,1.166,0.188c0.383,0.129,0.721,0.311,1.015,0.545L69.33,87.556z"/>
		<path fill="#FFFFFF" d="M72.535,83.425v2.672c0.18-0.184,0.402-0.328,0.668-0.434c0.271-0.105,0.543-0.158,0.82-0.158
			c1.504,0,2.256,0.881,2.256,2.643v3.598l-1.875,0.006v-3.475c0-0.359-0.082-0.629-0.246-0.809s-0.395-0.27-0.691-0.27
			c-0.288,0-0.516,0.09-0.68,0.27c-0.168,0.18-0.252,0.449-0.252,0.809v3.469l-1.875,0.012v-8.325L72.535,83.425z"/>
		<path fill="#FFFFFF" d="M79.162,87.205c-0.477,0.02-0.715,0.352-0.715,0.996v3.545h-1.875v-3.545c0-1.707,0.863-2.604,2.59-2.689
			h0.105c1.727,0.086,2.59,0.982,2.59,2.689v3.545h-1.875v-3.545c0-0.646-0.238-0.978-0.715-0.996H79.162L79.162,87.205z"/>
		<path fill="#FFFFFF" d="M83.891,91.517c-0.531-0.281-0.953-0.666-1.267-1.154c-0.315-0.492-0.475-1.043-0.475-1.652
			c0-0.457,0.092-0.883,0.274-1.276c0.184-0.394,0.437-0.735,0.757-1.024c0.323-0.293,0.692-0.519,1.106-0.675
			c0.422-0.155,0.854-0.233,1.295-0.233c0.445,0,0.879,0.078,1.301,0.233c0.41,0.147,0.779,0.371,1.107,0.668
			c0.324,0.298,0.576,0.642,0.756,1.031c0.185,0.396,0.275,0.819,0.275,1.276c0,0.465-0.09,0.892-0.271,1.277
			c-0.18,0.391-0.434,0.736-0.762,1.037c-0.332,0.297-0.701,0.521-1.107,0.674c-0.409,0.16-0.844,0.24-1.301,0.24
			C84.986,91.938,84.422,91.798,83.891,91.517z M84.488,89.789c0.309,0.301,0.674,0.451,1.096,0.451c0.426,0,0.793-0.15,1.103-0.451
			c0.313-0.302,0.469-0.66,0.469-1.078c0-0.273-0.072-0.525-0.217-0.756c-0.146-0.231-0.338-0.414-0.58-0.552
			c-0.238-0.137-0.496-0.204-0.773-0.204c-0.27,0-0.524,0.067-0.768,0.204c-0.243,0.138-0.437,0.32-0.58,0.552
			c-0.145,0.23-0.217,0.481-0.217,0.756C84.02,89.128,84.176,89.487,84.488,89.789z"/>
		<path fill="#FFFFFF" d="M89.316,83.431l1.869-0.006v8.309l-1.869,0.023V83.431z"/>
		<path fill="#FFFFFF" d="M93.219,91.517c-0.53-0.281-0.952-0.666-1.266-1.154c-0.315-0.492-0.475-1.043-0.475-1.652
			c0-0.457,0.092-0.883,0.274-1.276c0.184-0.394,0.437-0.735,0.756-1.024c0.324-0.293,0.693-0.519,1.107-0.675
			c0.422-0.155,0.854-0.233,1.295-0.233c0.445,0,0.879,0.078,1.301,0.233c0.41,0.147,0.779,0.371,1.107,0.668
			c0.324,0.298,0.576,0.642,0.756,1.031c0.184,0.396,0.275,0.819,0.275,1.276c0,0.465-0.091,0.892-0.271,1.277
			c-0.18,0.391-0.434,0.736-0.762,1.037c-0.332,0.297-0.701,0.521-1.107,0.674c-0.41,0.16-0.844,0.24-1.301,0.24
			C94.314,91.938,93.75,91.798,93.219,91.517z M93.816,89.789c0.309,0.301,0.674,0.451,1.096,0.451c0.426,0,0.793-0.15,1.103-0.451
			c0.313-0.302,0.469-0.66,0.469-1.078c0-0.273-0.072-0.525-0.217-0.756c-0.146-0.231-0.338-0.414-0.58-0.552
			c-0.238-0.137-0.496-0.204-0.773-0.204c-0.27,0-0.524,0.067-0.768,0.204c-0.243,0.138-0.437,0.32-0.58,0.552
			c-0.145,0.23-0.217,0.481-0.217,0.756C93.348,89.128,93.504,89.487,93.816,89.789z"/>
		<path fill="#FFFFFF" d="M105.189,88.763l-0.006,3.176v0.434c0,0.771-0.273,1.428-0.82,1.976c-0.254,0.254-0.594,0.455-1.021,0.604
			c-0.397,0.141-0.793,0.211-1.184,0.211h-0.328c-0.891-0.021-1.6-0.291-2.127-0.814c-0.354-0.363-0.57-0.682-0.645-0.955
			l1.787-1.037c0.02,0.309,0.143,0.57,0.368,0.785c0.227,0.215,0.496,0.322,0.81,0.322c0.246,0,0.471-0.07,0.674-0.211
			c0.199-0.137,0.342-0.313,0.428-0.527l0.006-0.023l0.013-0.029c0.008-0.026,0.016-0.055,0.022-0.082
			c0.017-0.047,0.025-0.094,0.029-0.141v-0.018l0.006-0.018l0.006-0.023v-0.035h0.006v-0.615l-0.047,0.023l-0.047,0.018
			c-0.391,0.16-0.801,0.24-1.229,0.24c-0.57,0-1.104-0.143-1.601-0.428c-0.496-0.277-0.895-0.666-1.194-1.166
			c-0.301-0.5-0.451-1.057-0.451-1.67c0-0.465,0.088-0.896,0.264-1.289c0.168-0.391,0.406-0.738,0.715-1.043
			c0.301-0.289,0.648-0.514,1.043-0.674c0.398-0.16,0.808-0.24,1.226-0.24c0.727,0,1.266,0.094,1.616,0.281
			C104.629,86.272,105.189,87.263,105.189,88.763z M100.941,89.8c0.309,0.301,0.664,0.451,1.065,0.451
			c0.406,0,0.765-0.15,1.072-0.451c0.305-0.297,0.457-0.654,0.457-1.072c0-0.266-0.07-0.516-0.211-0.75s-0.328-0.418-0.563-0.551
			c-0.238-0.133-0.49-0.199-0.757-0.199c-0.266,0-0.514,0.066-0.743,0.199c-0.234,0.133-0.425,0.316-0.568,0.551
			c-0.141,0.234-0.211,0.484-0.211,0.75C100.484,89.146,100.637,89.503,100.941,89.8z"/>
		<path fill="#FFFFFF" d="M107.299,84.55c-0.086,0.145-0.202,0.262-0.352,0.352s-0.313,0.135-0.492,0.135s-0.342-0.043-0.485-0.129
			c-0.148-0.09-0.267-0.209-0.353-0.357c-0.09-0.155-0.135-0.321-0.135-0.497c0-0.181,0.043-0.345,0.129-0.492
			c0.094-0.151,0.213-0.271,0.356-0.356c0.145-0.086,0.308-0.129,0.486-0.129s0.344,0.043,0.492,0.129
			c0.145,0.086,0.262,0.205,0.352,0.356c0.086,0.147,0.129,0.313,0.129,0.492C107.428,84.24,107.385,84.405,107.299,84.55z
			 M107.422,85.751v6.006h-1.868v-6L107.422,85.751z"/>
		<path fill="#FFFFFF" d="M114.043,87.438c0.176,0.396,0.265,0.815,0.265,1.267v0.053c0,0.02-0.002,0.041-0.007,0.063l-0.012,0.101
			h-0.727v0.012h-4.031c0.047,0.328,0.189,0.611,0.428,0.85c0.301,0.297,0.652,0.445,1.056,0.445c0.405,0,0.758-0.148,1.055-0.445
			l0.012-0.012l0.019-0.023l0.018-0.018l0.012-0.018l1.009,1.44c-0.289,0.234-0.582,0.412-0.88,0.533
			c-0.397,0.155-0.813,0.233-1.241,0.233c-0.582,0-1.123-0.139-1.623-0.416c-0.513-0.28-0.916-0.666-1.213-1.153
			c-0.306-0.488-0.457-1.037-0.457-1.646c0-0.457,0.088-0.879,0.264-1.267c0.176-0.392,0.418-0.729,0.727-1.021
			c0.313-0.297,0.664-0.521,1.056-0.674c0.401-0.156,0.817-0.234,1.248-0.234c0.43,0,0.844,0.078,1.241,0.234
			c0.396,0.152,0.748,0.375,1.062,0.668C113.625,86.699,113.867,87.041,114.043,87.438z M111.014,87.205
			c-0.263,0-0.509,0.065-0.738,0.198c-0.142,0.087-0.277,0.207-0.41,0.363h2.297c-0.133-0.156-0.27-0.276-0.41-0.363
			C111.521,87.271,111.275,87.205,111.014,87.205z"/>
		<path fill="#FFFFFF" d="M115.549,89.858c0.371,0.371,0.824,0.558,1.359,0.558c0.559,0,0.838-0.164,0.838-0.492
			c0-0.172-0.154-0.299-0.463-0.381c-0.219-0.051-0.566-0.14-1.043-0.265c-0.387-0.103-0.713-0.288-0.979-0.563
			c-0.263-0.27-0.394-0.684-0.394-1.241c0-0.431,0.107-0.793,0.322-1.091c0.219-0.297,0.502-0.516,0.85-0.655
			c0.355-0.146,0.744-0.218,1.166-0.218c0.238,0,0.48,0.033,0.728,0.101c0.266,0.082,0.504,0.185,0.715,0.306
			c0.229,0.129,0.434,0.272,0.608,0.434l-1.03,1.025c-0.302-0.228-0.629-0.34-0.984-0.34c-0.426,0-0.639,0.118-0.639,0.356
			c0,0.215,0.158,0.364,0.475,0.45c0.348,0.095,0.697,0.183,1.049,0.265c0.388,0.099,0.709,0.276,0.968,0.539
			c0.262,0.267,0.393,0.685,0.393,1.254c0,0.427-0.113,0.793-0.34,1.103c-0.228,0.313-0.529,0.545-0.908,0.697
			c-0.379,0.159-0.771,0.239-1.178,0.239c-0.34,0-0.646-0.026-0.92-0.082c-0.273-0.051-0.529-0.138-0.769-0.258
			c-0.246-0.121-0.504-0.283-0.772-0.486L115.549,89.858z"/>
		<path fill="#FFFFFF" d="M119.926,90.298c0.103-0.164,0.232-0.291,0.394-0.381c0.164-0.094,0.338-0.142,0.521-0.142
			c0.184,0,0.357,0.048,0.521,0.142c0.16,0.098,0.289,0.227,0.387,0.387c0.099,0.156,0.146,0.328,0.146,0.516
			c0,0.313-0.103,0.57-0.306,0.773c-0.207,0.207-0.457,0.311-0.75,0.311c-0.194,0-0.373-0.047-0.532-0.141
			c-0.164-0.094-0.293-0.225-0.388-0.393c-0.094-0.172-0.141-0.355-0.141-0.552C119.779,90.628,119.828,90.455,119.926,90.298z"/>
	</g>
</g>
<g id="Layer_3">
</g>
</svg>
