<?xml version="1.0" encoding="UTF-8"?>
<!-- Generator: Adobe Illustrator 16.0.0, SVG Export Plug-In . SVG Version: 6.00 Build 0)  -->
<!DOCTYPE svg PUBLIC "-//W3C//DTD SVG 1.1//EN" "http://www.w3.org/Graphics/SVG/1.1/DTD/svg11.dtd">
<svg version="1.1" xmlns="http://www.w3.org/2000/svg" xmlns:xlink="http://www.w3.org/1999/xlink" x="0px" y="0px" width="122.687px" height="95.245px" viewBox="0 0 122.687 95.245" enable-background="new 0 0 122.687 95.245" xml:space="preserve">
<g id="Layer_3">
</g>
<g id="Layer_4">
	<g>
		<g>
			<path fill="#0F75BC" stroke="#0F75BC" stroke-width="0.25" stroke-miterlimit="10" d="M53.006,2.888     c0.875-0.164,1.905-0.092,2.782,0.119c1.504,0.365,2.944,0.904,4.829,1.506c-1.46,0.082-2.689,0.383-3.741,0.152     c-1.546-0.336-3.009-0.797-4.934-0.156C52.407,3.761,52.604,2.964,53.006,2.888z"/>
			<path fill="#0F75BC" stroke="#0F75BC" stroke-width="0.25" stroke-miterlimit="10" d="M31.429,54.206     c1.479-3.553,3.07-7.08,4.612-10.615c1.606-3.68,3.253-7.348,4.817-11.039c1.633-3.869,3.177-7.76,4.782-11.633     c0.588-1.42,1.184-2.84,1.773-4.258c7.842-1.08,21.701-5.775,25.254-8.361c-0.639,1.502-1.246,3.014-1.756,4.545     c-1.249,3.746-2.56,7.479-3.629,11.262c-1.846,6.525-3.21,13.129-3.219,19.857c-0.003,3.135,0.018,6.293,0.393,9.406     c0.44,3.684,1.196,7.35,2.816,10.836c0.664,1.432,1.353,2.855,2.115,4.25c0.14,0.258,0.354,0.488,0.563,0.688     c-2.036-0.434-4.044-0.926-6.129-1.277c-4.634-0.777-9.248-1.68-13.987-2.16c-6.546-0.662-13.202-1.273-19.815-0.084     c-1.173,0.207-2.309,0.484-3.459,0.736c0.141-0.355,0.276-0.711,0.423-1.066C28.459,61.597,29.891,57.888,31.429,54.206z"/>
			<path fill="#0F75BC" stroke="#0F75BC" stroke-width="0.25" stroke-miterlimit="10" d="M26.201,67.272     c0.098-0.254,0.2-0.51,0.299-0.764c0.056,0.055,0.104,0.109,0.154,0.162c2.732-0.352,5.445-0.916,8.205-1.004     c3.797-0.119,7.719-0.146,11.421,0.264c6.345,0.707,12.564,1.775,18.831,2.713c1.614,0.238,3.198,0.545,4.794,0.818     c0.046-0.074,0.094-0.15,0.143-0.229c0.146,0.139,0.283,0.264,0.384,0.371c-1.351-3.688-2.94-7.395-4.022-11.199     c-0.821-2.877-1.17-5.871-1.412-8.828c-0.519-6.361,0.127-12.695,1.637-18.936c1.181-4.873,2.749-9.682,4.267-14.5     c0.815-2.59,1.909-5.121,2.836-7.688c0.099-0.271-0.084-0.613-0.136-0.92c-0.082,0.061-0.18,0.117-0.276,0.174     c0.084-0.105,0.152-0.209,0.18-0.301c-0.49,0.156-0.809,0.207-1.051,0.342c-4.396,2.451-9.384,3.98-14.402,5.438     c-3.263,0.951-6.582,1.779-9.858,2.691c-0.241,0.07-0.442,0.221-0.62,0.402c1.172-2.811,2.345-5.621,3.516-8.432     c0.108-0.262,0.18-0.535,0.264-0.801c0.582-1.883,2.185-2.602,4.342-1.738c2.3,0.918,4.227,0.439,6.016-0.752     c0.747-0.494,1.515-1.105,1.138-2.318c-0.608,0.2-1.138,0.336-1.616,0.541c-1.246,0.535-2.352,0.408-3.641-0.083     C56.374,2.238,54.934,2.025,53.585,2c-0.933-0.016-1.694,0.564-2.042,1.448c-2.689,6.852-5.39,13.699-8.173,20.523     c-2.233,5.479-4.544,10.936-6.893,16.377c-2.014,4.664-4.188,9.281-6.171,13.955c-1.587,3.746-3.003,7.539-4.455,11.32     c-0.188,0.496-0.111,1.055-0.154,1.584C25.866,67.228,26.033,67.251,26.201,67.272z M51.942,4.509     c0.465-0.748,0.661-1.545,1.063-1.621c0.875-0.164,1.905-0.092,2.782,0.119c1.504,0.365,2.944,0.904,4.829,1.506     c-1.46,0.082-2.689,0.383-3.741,0.152C55.33,4.329,53.867,3.868,51.942,4.509z M26.561,66.358     c0.141-0.355,0.276-0.711,0.423-1.066c1.476-3.695,2.907-7.404,4.445-11.086c1.479-3.553,3.07-7.08,4.612-10.615     c1.606-3.68,3.253-7.348,4.817-11.039c1.633-3.869,3.177-7.76,4.782-11.633c0.588-1.42,1.184-2.84,1.773-4.258     c7.842-1.08,21.701-5.775,25.254-8.361c-0.639,1.502-1.246,3.014-1.756,4.545c-1.249,3.746-2.56,7.479-3.629,11.262     c-1.846,6.525-3.21,13.129-3.219,19.857c-0.003,3.135,0.018,6.293,0.393,9.406c0.44,3.684,1.196,7.35,2.816,10.836     c0.664,1.432,1.353,2.855,2.115,4.25c0.14,0.258,0.354,0.488,0.563,0.688c-2.036-0.434-4.044-0.926-6.129-1.277     c-4.634-0.777-9.248-1.68-13.987-2.16c-6.546-0.662-13.202-1.273-19.815-0.084C28.846,65.829,27.711,66.106,26.561,66.358z"/>
		</g>
		<g>
			<path fill="#0F75BC" stroke="#0F75BC" stroke-width="0.25" stroke-miterlimit="10" d="M30.265,30.399     c3.392-4.125,7.192-7.986,11.225-11.699c-0.19,0.229-0.396,0.455-0.583,0.686c-4.219,5.236-6.752,11.053-9.208,16.895     c-1.564,3.721-3.233,7.424-4.587,11.195c-1.96,5.467-3.818,10.965-4.077,16.701c-0.007,0.113-0.06,0.229-0.048,0.338     c0.033,0.316,0.081,0.629,0.124,0.941c-1.289-0.494-2.582-1.074-3.951-1.271c-3.468-0.492-6.979-0.779-10.501-0.264     c-0.406,0.061-0.813,0.094-1.553,0.178c3.511-5.834,7.078-11.463,10.755-17.053C21.628,41.31,25.828,35.8,30.265,30.399z"/>
			<path fill="#0F75BC" stroke="#0F75BC" stroke-width="0.25" stroke-miterlimit="10" d="M7.494,66.292     c4.088,0.555,7.991,1.105,11.909,1.605c6.133,0.787,12.271,1.572,18.42,2.305c5.695,0.676,11.391,1.352,17.111,1.898     c3.719,0.352,7.467,0.49,11.204,0.676c1.024,0.047,2.054-0.006,3.08-0.037c-0.202,0.332-0.41,0.666-0.582,1     c-0.313,0.615-0.547,1.236-0.547,1.871c-0.002,0.297,0.003,0.592,0.066,0.887c0.073,0.346,0.204,0.691,0.479,1.02     c0.034,0.043,0.072,0.082,0.106,0.123c-1.568-0.078-3.128-0.18-4.662-0.379c-4.127-0.529-8.147-1.43-12.197-2.203     c-5.098-0.975-10.193-1.908-15.554-2.068c-4.048-0.123-7.979,0.281-11.901,0.861c-2.397,0.357-4.714,0.854-6.989,1.412     C14.523,71.882,10.897,69.261,7.494,66.292z"/>
			<path fill="#0F75BC" stroke="#0F75BC" stroke-width="0.25" stroke-miterlimit="10" d="M8.183,77.782     c-0.438,0.125-0.797,0.365-1.191,0.549c0.073,0.09,0.143,0.184,0.22,0.277c1.72-0.469,3.409-0.984,5.159-1.395     c4.275-1.002,8.502-2.119,12.878-2.875c4.363-0.75,8.91-1.072,13.434-0.586c3.301,0.357,6.589,0.807,9.824,1.359     c4.957,0.844,9.803,2.002,14.808,2.678c3.995,0.539,8.159,0.557,12.251,0.777c0.442,0.025,0.913-0.148,1.369-0.23     c-0.012-0.092-0.021-0.18-0.031-0.268c-0.75-0.059-1.497-0.129-2.249-0.172c-1.906-0.107-3.831-0.158-5.741-0.248     c-0.156-0.227-0.309-0.449-0.427-0.678c-0.139-0.271-0.198-0.555-0.239-0.834c-0.089-0.6,0.021-1.197,0.277-1.783     c0.203-0.461,0.468-0.912,0.728-1.365c0.049-0.088,0.107-0.17,0.164-0.256c0.124-0.002,0.25-0.008,0.374-0.01     c-0.005-0.16-0.009-0.32-0.017-0.482c-0.011,0-0.025,0-0.039,0c-0.003-0.021-0.016-0.045-0.023-0.064     c-0.048,0.02-0.116,0.035-0.143,0.057c-21.27-0.586-42.017-4.352-62.983-6.76c1.616-1.826,13.785-1.141,16.898,0.893     c-0.064-0.291-0.019-0.773-0.208-0.846c-0.029-0.01-0.06-0.021-0.091-0.035c3.147-16.893,9.729-32.852,19.642-48.002     c0.781-0.703,1.567-1.402,2.364-2.098c-0.156-0.119-0.31-0.236-0.465-0.352c-0.344,0.199-0.763,0.346-1.026,0.602     c-3.502,3.389-7.165,6.678-10.419,10.221c-3.472,3.783-6.7,7.732-9.755,11.746c-2.759,3.631-5.19,7.426-7.69,11.188     c-2.571,3.863-5.062,7.766-7.559,11.662C7.678,61.384,7.249,62.39,6.63,63.31C6.198,63.952,5.562,64.507,5,65.124     c3.66,3.311,7.563,6.846,11.495,10.373C13.696,76.208,10.946,77.011,8.183,77.782z M7.104,64.099     c3.511-5.834,7.078-11.463,10.755-17.053c3.769-5.736,7.968-11.246,12.405-16.646c3.392-4.125,7.192-7.986,11.225-11.699     c-0.19,0.229-0.396,0.455-0.583,0.686c-4.219,5.236-6.752,11.053-9.208,16.895c-1.564,3.721-3.233,7.424-4.587,11.195     c-1.96,5.467-3.818,10.965-4.077,16.701c-0.007,0.113-0.06,0.229-0.048,0.338c0.033,0.316,0.081,0.629,0.124,0.941     c-1.289-0.494-2.582-1.074-3.951-1.271c-3.468-0.492-6.979-0.779-10.501-0.264C8.251,63.981,7.845,64.015,7.104,64.099z      M24.427,73.851c-2.397,0.357-4.714,0.854-6.989,1.412c-2.915-3.381-6.541-6.002-9.944-8.971     c4.088,0.555,7.991,1.105,11.909,1.605c6.133,0.787,12.271,1.572,18.42,2.305c5.695,0.676,11.391,1.352,17.111,1.898     c3.719,0.352,7.467,0.49,11.204,0.676c1.024,0.047,2.054-0.006,3.08-0.037c-0.202,0.332-0.41,0.666-0.582,1     c-0.313,0.615-0.547,1.236-0.547,1.871c-0.002,0.297,0.003,0.592,0.066,0.887c0.073,0.346,0.204,0.691,0.479,1.02     c0.034,0.043,0.072,0.082,0.106,0.123c-1.568-0.078-3.128-0.18-4.662-0.379c-4.127-0.529-8.147-1.43-12.197-2.203     c-5.098-0.975-10.193-1.908-15.554-2.068C32.28,72.866,28.349,73.271,24.427,73.851z"/>
		</g>
	</g>
</g>
<g id="Layer_1">
	<g>
		<path fill="#FFFFFF" d="M70.574,52.886c-2.859,0.117-4.289,2.109-4.289,5.977v21.27h-11.25v-21.27    c0-10.242,5.18-15.621,15.539-16.137h0.633c10.359,0.516,15.539,5.895,15.539,16.137v21.27h-11.25v-21.27    c0-3.867-1.43-5.859-4.289-5.977H70.574z"/>
		<path fill="#FFFFFF" d="M116.207,54.995c-1.008-0.844-2.109-1.477-3.305-1.898c-1.242-0.422-2.555-0.633-3.938-0.633    c-2.578,0-4.758,0.832-6.539,2.496c-1.805,1.664-2.707,3.727-2.707,6.188c0,1.922,0.387,3.645,1.16,5.168    c0.75,1.523,1.863,2.73,3.34,3.621c1.43,0.914,3.082,1.371,4.957,1.371c2.766,0,5.133-0.879,7.102-2.637l6.152,7.805    c-0.891,0.938-2.133,1.77-3.727,2.496c-1.617,0.727-3.281,1.266-4.992,1.617s-3.293,0.527-4.746,0.527    c-4.078,0-7.676-0.855-10.793-2.566c-3.117-1.734-5.508-4.008-7.172-6.82c-1.664-2.859-2.496-5.918-2.496-9.176    c0-2.977,0.504-5.672,1.512-8.086c1.031-2.461,2.449-4.57,4.254-6.328c1.781-1.711,3.949-3.059,6.504-4.043    c2.531-0.961,5.262-1.441,8.191-1.441c2.391,0,4.723,0.375,6.996,1.125c2.297,0.773,4.324,1.863,6.082,3.27L116.207,54.995z"/>
	</g>
	<g>
		<path fill="#FFFFFF" d="M43.695,83.431l1.869-0.006v8.309l-1.869,0.023V83.431z"/>
		<path fill="#FFFFFF" d="M45.857,83.431l1.869-0.006v8.309l-1.869,0.023V83.431z"/>
		<path fill="#FFFFFF" d="M51.096,87.31c-0.098-0.066-0.225-0.104-0.381-0.111h-0.105c-0.477,0.02-0.715,0.352-0.715,0.996v3.551    H48.02v-3.551c0-1.707,0.863-2.604,2.59-2.689h0.105c0.129,0.004,0.256,0.016,0.381,0.035V87.31z"/>
		<path fill="#FFFFFF" d="M54.184,87.345h-1.236l0.422-1.605h0.814v-2.309l1.869,0.012v2.297h1.242l-0.416,1.605h-0.826v1.986    c0,0.531,0.332,0.797,0.996,0.797c0.215,0,0.379-0.025,0.492-0.076l-0.539,1.863c-0.098,0.016-0.193,0.023-0.287,0.023    c-0.559,0-1.023-0.09-1.395-0.27c-0.375-0.18-0.658-0.451-0.85-0.814c-0.191-0.359-0.287-0.818-0.287-1.377V87.345z"/>
		<path fill="#FFFFFF" d="M64.156,87.438c0.176,0.395,0.264,0.816,0.264,1.266v0.053c0,0.02-0.002,0.041-0.006,0.064l-0.012,0.1    h-0.727v0.012h-4.031c0.047,0.328,0.189,0.611,0.428,0.85c0.301,0.297,0.652,0.445,1.055,0.445c0.406,0,0.758-0.148,1.055-0.445    l0.012-0.012l0.018-0.023l0.018-0.018l0.012-0.018l1.008,1.441c-0.289,0.234-0.582,0.412-0.879,0.533    c-0.398,0.156-0.813,0.234-1.242,0.234c-0.582,0-1.123-0.139-1.623-0.416c-0.512-0.281-0.916-0.666-1.213-1.154    c-0.305-0.488-0.457-1.037-0.457-1.646c0-0.457,0.088-0.879,0.264-1.266c0.176-0.391,0.418-0.73,0.727-1.02    c0.313-0.297,0.664-0.521,1.055-0.674c0.402-0.156,0.818-0.234,1.248-0.234s0.844,0.078,1.242,0.234    c0.395,0.152,0.748,0.375,1.061,0.668C63.738,86.698,63.98,87.04,64.156,87.438z M61.127,87.204c-0.262,0-0.508,0.066-0.738,0.199    c-0.141,0.086-0.277,0.207-0.41,0.363h2.297c-0.133-0.156-0.27-0.277-0.41-0.363C61.635,87.271,61.389,87.204,61.127,87.204z"/>
		<path fill="#FFFFFF" d="M69.33,87.556c-0.168-0.141-0.352-0.246-0.551-0.316c-0.207-0.07-0.426-0.105-0.656-0.105    c-0.43,0-0.793,0.139-1.09,0.416c-0.301,0.277-0.451,0.621-0.451,1.031c0,0.32,0.064,0.607,0.193,0.861    c0.125,0.254,0.311,0.455,0.557,0.604c0.238,0.152,0.514,0.229,0.826,0.229c0.461,0,0.855-0.146,1.184-0.439l1.025,1.301    c-0.148,0.156-0.355,0.295-0.621,0.416c-0.27,0.121-0.547,0.211-0.832,0.27s-0.549,0.088-0.791,0.088    c-0.68,0-1.279-0.143-1.799-0.428c-0.52-0.289-0.918-0.668-1.195-1.137c-0.277-0.477-0.416-0.986-0.416-1.529    c0-0.496,0.084-0.945,0.252-1.348c0.172-0.41,0.408-0.762,0.709-1.055c0.297-0.285,0.658-0.51,1.084-0.674    c0.422-0.16,0.877-0.24,1.365-0.24c0.398,0,0.787,0.063,1.166,0.188c0.383,0.129,0.721,0.311,1.014,0.545L69.33,87.556z"/>
		<path fill="#FFFFFF" d="M72.535,83.425v2.672c0.18-0.184,0.402-0.328,0.668-0.434c0.27-0.105,0.543-0.158,0.82-0.158    c1.504,0,2.256,0.881,2.256,2.643v3.598l-1.875,0.006v-3.475c0-0.359-0.082-0.629-0.246-0.809s-0.395-0.27-0.691-0.27    c-0.289,0-0.516,0.09-0.68,0.27c-0.168,0.18-0.252,0.449-0.252,0.809v3.469l-1.875,0.012v-8.326L72.535,83.425z"/>
		<path fill="#FFFFFF" d="M79.162,87.204c-0.477,0.02-0.715,0.352-0.715,0.996v3.545h-1.875V88.2c0-1.707,0.863-2.604,2.59-2.689    h0.105c1.727,0.086,2.59,0.982,2.59,2.689v3.545h-1.875V88.2c0-0.645-0.238-0.977-0.715-0.996H79.162z"/>
		<path fill="#FFFFFF" d="M83.891,91.517c-0.531-0.281-0.953-0.666-1.266-1.154c-0.316-0.492-0.475-1.043-0.475-1.652    c0-0.457,0.092-0.883,0.275-1.277s0.436-0.736,0.756-1.025c0.324-0.293,0.693-0.518,1.107-0.674    c0.422-0.156,0.854-0.234,1.295-0.234c0.445,0,0.879,0.078,1.301,0.234c0.41,0.148,0.779,0.371,1.107,0.668    c0.324,0.297,0.576,0.641,0.756,1.031c0.184,0.395,0.275,0.82,0.275,1.277c0,0.465-0.09,0.891-0.27,1.277    c-0.18,0.391-0.434,0.736-0.762,1.037c-0.332,0.297-0.701,0.521-1.107,0.674c-0.41,0.16-0.844,0.24-1.301,0.24    C84.986,91.938,84.422,91.798,83.891,91.517z M84.488,89.788c0.309,0.301,0.674,0.451,1.096,0.451c0.426,0,0.793-0.15,1.102-0.451    c0.313-0.301,0.469-0.66,0.469-1.078c0-0.273-0.072-0.525-0.217-0.756s-0.338-0.414-0.58-0.551    c-0.238-0.137-0.496-0.205-0.773-0.205c-0.27,0-0.525,0.068-0.768,0.205s-0.436,0.32-0.58,0.551s-0.217,0.482-0.217,0.756    C84.02,89.128,84.176,89.487,84.488,89.788z"/>
		<path fill="#FFFFFF" d="M89.316,83.431l1.869-0.006v8.309l-1.869,0.023V83.431z"/>
		<path fill="#FFFFFF" d="M93.219,91.517c-0.531-0.281-0.953-0.666-1.266-1.154c-0.316-0.492-0.475-1.043-0.475-1.652    c0-0.457,0.092-0.883,0.275-1.277s0.436-0.736,0.756-1.025c0.324-0.293,0.693-0.518,1.107-0.674    c0.422-0.156,0.854-0.234,1.295-0.234c0.445,0,0.879,0.078,1.301,0.234c0.41,0.148,0.779,0.371,1.107,0.668    c0.324,0.297,0.576,0.641,0.756,1.031c0.184,0.395,0.275,0.82,0.275,1.277c0,0.465-0.09,0.891-0.27,1.277    c-0.18,0.391-0.434,0.736-0.762,1.037c-0.332,0.297-0.701,0.521-1.107,0.674c-0.41,0.16-0.844,0.24-1.301,0.24    C94.314,91.938,93.75,91.798,93.219,91.517z M93.816,89.788c0.309,0.301,0.674,0.451,1.096,0.451c0.426,0,0.793-0.15,1.102-0.451    c0.313-0.301,0.469-0.66,0.469-1.078c0-0.273-0.072-0.525-0.217-0.756s-0.338-0.414-0.58-0.551    c-0.238-0.137-0.496-0.205-0.773-0.205c-0.27,0-0.525,0.068-0.768,0.205s-0.436,0.32-0.58,0.551s-0.217,0.482-0.217,0.756    C93.348,89.128,93.504,89.487,93.816,89.788z"/>
		<path fill="#FFFFFF" d="M105.189,88.763l-0.006,3.176v0.434c0,0.77-0.273,1.428-0.82,1.975c-0.254,0.254-0.594,0.455-1.02,0.604    c-0.398,0.141-0.793,0.211-1.184,0.211h-0.328c-0.891-0.02-1.6-0.291-2.127-0.814c-0.355-0.363-0.57-0.682-0.645-0.955    l1.787-1.037c0.02,0.309,0.143,0.57,0.369,0.785s0.496,0.322,0.809,0.322c0.246,0,0.471-0.07,0.674-0.211    c0.199-0.137,0.342-0.313,0.428-0.527l0.006-0.023l0.012-0.029c0.008-0.027,0.016-0.055,0.023-0.082    c0.016-0.047,0.025-0.094,0.029-0.141v-0.018l0.006-0.018l0.006-0.023v-0.035h0.006v-0.615l-0.047,0.023l-0.047,0.018    c-0.391,0.16-0.801,0.24-1.23,0.24c-0.57,0-1.104-0.143-1.6-0.428c-0.496-0.277-0.895-0.666-1.195-1.166s-0.451-1.057-0.451-1.67    c0-0.465,0.088-0.895,0.264-1.289c0.168-0.391,0.406-0.738,0.715-1.043c0.301-0.289,0.648-0.514,1.043-0.674    c0.398-0.16,0.807-0.24,1.225-0.24c0.727,0,1.266,0.094,1.617,0.281C104.629,86.272,105.189,87.263,105.189,88.763z M100.941,89.8    c0.309,0.301,0.664,0.451,1.066,0.451c0.406,0,0.764-0.15,1.072-0.451c0.305-0.297,0.457-0.654,0.457-1.072    c0-0.266-0.07-0.516-0.211-0.75s-0.328-0.418-0.563-0.551c-0.238-0.133-0.49-0.199-0.756-0.199s-0.514,0.066-0.744,0.199    c-0.234,0.133-0.424,0.316-0.568,0.551c-0.141,0.234-0.211,0.484-0.211,0.75C100.484,89.146,100.637,89.503,100.941,89.8z"/>
		<path fill="#FFFFFF" d="M107.299,84.55c-0.086,0.145-0.203,0.262-0.352,0.352s-0.313,0.135-0.492,0.135s-0.342-0.043-0.486-0.129    c-0.148-0.09-0.266-0.209-0.352-0.357c-0.09-0.156-0.135-0.322-0.135-0.498c0-0.18,0.043-0.344,0.129-0.492    c0.094-0.152,0.213-0.271,0.357-0.357s0.307-0.129,0.486-0.129s0.344,0.043,0.492,0.129c0.145,0.086,0.262,0.205,0.352,0.357    c0.086,0.148,0.129,0.313,0.129,0.492C107.428,84.239,107.385,84.405,107.299,84.55z M107.422,85.751v6.006h-1.869v-6    L107.422,85.751z"/>
		<path fill="#FFFFFF" d="M114.043,87.438c0.176,0.395,0.264,0.816,0.264,1.266v0.053c0,0.02-0.002,0.041-0.006,0.064l-0.012,0.1    h-0.727v0.012h-4.031c0.047,0.328,0.189,0.611,0.428,0.85c0.301,0.297,0.652,0.445,1.055,0.445c0.406,0,0.758-0.148,1.055-0.445    l0.012-0.012l0.018-0.023l0.018-0.018l0.012-0.018l1.008,1.441c-0.289,0.234-0.582,0.412-0.879,0.533    c-0.398,0.156-0.813,0.234-1.242,0.234c-0.582,0-1.123-0.139-1.623-0.416c-0.512-0.281-0.916-0.666-1.213-1.154    c-0.305-0.488-0.457-1.037-0.457-1.646c0-0.457,0.088-0.879,0.264-1.266c0.176-0.391,0.418-0.73,0.727-1.02    c0.313-0.297,0.664-0.521,1.055-0.674c0.402-0.156,0.818-0.234,1.248-0.234s0.844,0.078,1.242,0.234    c0.395,0.152,0.748,0.375,1.061,0.668C113.625,86.698,113.867,87.04,114.043,87.438z M111.014,87.204    c-0.262,0-0.508,0.066-0.738,0.199c-0.141,0.086-0.277,0.207-0.41,0.363h2.297c-0.133-0.156-0.27-0.277-0.41-0.363    C111.521,87.271,111.275,87.204,111.014,87.204z"/>
		<path fill="#FFFFFF" d="M115.549,89.858c0.371,0.371,0.824,0.557,1.359,0.557c0.559,0,0.838-0.164,0.838-0.492    c0-0.172-0.154-0.299-0.463-0.381c-0.219-0.051-0.566-0.139-1.043-0.264c-0.387-0.102-0.713-0.289-0.979-0.563    c-0.262-0.27-0.393-0.684-0.393-1.242c0-0.43,0.107-0.793,0.322-1.09c0.219-0.297,0.502-0.516,0.85-0.656    c0.355-0.145,0.744-0.217,1.166-0.217c0.238,0,0.48,0.033,0.727,0.1c0.266,0.082,0.504,0.184,0.715,0.305    c0.23,0.129,0.434,0.273,0.609,0.434l-1.031,1.025c-0.301-0.227-0.629-0.34-0.984-0.34c-0.426,0-0.639,0.119-0.639,0.357    c0,0.215,0.158,0.365,0.475,0.451c0.348,0.094,0.697,0.182,1.049,0.264c0.387,0.098,0.709,0.277,0.967,0.539    c0.262,0.266,0.393,0.684,0.393,1.254c0,0.426-0.113,0.793-0.34,1.102c-0.227,0.313-0.529,0.545-0.908,0.697    c-0.379,0.16-0.771,0.24-1.178,0.24c-0.34,0-0.646-0.027-0.92-0.082c-0.273-0.051-0.529-0.137-0.768-0.258    c-0.246-0.121-0.504-0.283-0.773-0.486L115.549,89.858z"/>
		<path fill="#FFFFFF" d="M119.926,90.298c0.102-0.164,0.232-0.291,0.393-0.381c0.164-0.094,0.338-0.141,0.521-0.141    s0.357,0.047,0.521,0.141c0.16,0.098,0.289,0.227,0.387,0.387c0.098,0.156,0.146,0.328,0.146,0.516    c0,0.313-0.102,0.57-0.305,0.773c-0.207,0.207-0.457,0.311-0.75,0.311c-0.195,0-0.373-0.047-0.533-0.141    c-0.164-0.094-0.293-0.225-0.387-0.393c-0.094-0.172-0.141-0.355-0.141-0.551C119.779,90.628,119.828,90.454,119.926,90.298z"/>
	</g>
</g>
</svg>