<?xml version="1.0" encoding="utf-8"?>
<!-- Generator: Adobe Illustrator 16.0.0, SVG Export Plug-In . SVG Version: 6.00 Build 0)  -->
<!DOCTYPE svg PUBLIC "-//W3C//DTD SVG 1.1//EN" "http://www.w3.org/Graphics/SVG/1.1/DTD/svg11.dtd">
<svg version="1.1" xmlns="http://www.w3.org/2000/svg" xmlns:xlink="http://www.w3.org/1999/xlink" x="0px" y="0px"
	 width="122.687px" height="95.245px" viewBox="0 0 122.687 95.245" enable-background="new 0 0 122.687 95.245"
	 xml:space="preserve">
<g id="Layer_3">
</g>
<g id="Layer_4">
	<g>
		<g>
			<path fill="#0F75BC" stroke="#0F75BC" stroke-width="0.25" stroke-miterlimit="10" d="M-225.929,2.888
				c0.875-0.164,1.905-0.092,2.782,0.119c1.504,0.365,2.944,0.904,4.829,1.506c-1.46,0.082-2.689,0.383-3.741,0.152
				c-1.546-0.336-3.009-0.797-4.934-0.156C-226.527,3.761-226.331,2.964-225.929,2.888z"/>
			<path fill="#0F75BC" stroke="#0F75BC" stroke-width="0.25" stroke-miterlimit="10" d="M-247.505,54.206
				c1.479-3.553,3.07-7.08,4.612-10.615c1.606-3.68,3.253-7.348,4.817-11.039c1.633-3.869,3.177-7.76,4.782-11.633
				c0.588-1.42,1.184-2.84,1.773-4.258c7.842-1.08,21.701-5.775,25.254-8.361c-0.639,1.502-1.246,3.014-1.756,4.545
				c-1.249,3.746-2.56,7.479-3.629,11.262c-1.846,6.525-3.21,13.129-3.219,19.857c-0.003,3.135,0.018,6.293,0.393,9.406
				c0.44,3.684,1.196,7.35,2.816,10.836c0.664,1.432,1.353,2.855,2.115,4.25c0.14,0.258,0.354,0.488,0.563,0.688
				c-2.036-0.434-4.044-0.926-6.129-1.277c-4.634-0.777-9.248-1.68-13.987-2.16c-6.546-0.662-13.202-1.273-19.815-0.084
				c-1.173,0.207-2.309,0.484-3.459,0.736c0.141-0.355,0.276-0.711,0.423-1.066C-250.475,61.597-249.043,57.888-247.505,54.206z"/>
			<path fill="#0F75BC" stroke="#0F75BC" stroke-width="0.25" stroke-miterlimit="10" d="M-252.733,67.272
				c0.098-0.254,0.2-0.51,0.299-0.764c0.056,0.055,0.104,0.109,0.154,0.162c2.732-0.352,5.445-0.916,8.205-1.004
				c3.797-0.119,7.719-0.146,11.421,0.264c6.345,0.707,12.564,1.775,18.831,2.713c1.614,0.238,3.198,0.545,4.794,0.818
				c0.046-0.074,0.094-0.15,0.143-0.229c0.146,0.139,0.283,0.264,0.384,0.371c-1.351-3.688-2.94-7.395-4.022-11.199
				c-0.821-2.877-1.17-5.871-1.412-8.828c-0.519-6.361,0.127-12.695,1.637-18.936c1.181-4.873,2.749-9.682,4.267-14.5
				c0.815-2.59,1.909-5.121,2.836-7.688c0.099-0.271-0.084-0.613-0.136-0.92c-0.082,0.061-0.18,0.117-0.276,0.174
				c0.084-0.105,0.152-0.209,0.18-0.301c-0.49,0.156-0.809,0.207-1.051,0.342c-4.396,2.451-9.384,3.98-14.402,5.438
				c-3.263,0.951-6.582,1.779-9.858,2.691c-0.241,0.07-0.442,0.221-0.62,0.402c1.172-2.811,2.345-5.621,3.516-8.432
				c0.108-0.262,0.18-0.535,0.264-0.801c0.582-1.883,2.185-2.602,4.342-1.738c2.3,0.918,4.227,0.439,6.016-0.752
				c0.747-0.494,1.515-1.105,1.138-2.318c-0.608,0.2-1.138,0.336-1.616,0.541c-1.246,0.535-2.352,0.408-3.641-0.083
				c-1.216-0.46-2.656-0.673-4.005-0.697c-0.933-0.016-1.694,0.564-2.042,1.448c-2.689,6.852-5.39,13.699-8.173,20.523
				c-2.233,5.479-4.544,10.936-6.893,16.377c-2.014,4.664-4.188,9.281-6.171,13.955c-1.587,3.746-3.003,7.539-4.455,11.32
				c-0.188,0.496-0.111,1.055-0.154,1.584C-253.068,67.228-252.902,67.251-252.733,67.272z M-226.992,4.509
				c0.465-0.748,0.661-1.545,1.063-1.621c0.875-0.164,1.905-0.092,2.782,0.119c1.504,0.365,2.944,0.904,4.829,1.506
				c-1.46,0.082-2.689,0.383-3.741,0.152C-223.604,4.329-225.067,3.868-226.992,4.509z M-252.374,66.358
				c0.141-0.355,0.276-0.711,0.423-1.066c1.476-3.695,2.907-7.404,4.445-11.086c1.479-3.553,3.07-7.08,4.612-10.615
				c1.606-3.68,3.253-7.348,4.817-11.039c1.633-3.869,3.177-7.76,4.782-11.633c0.588-1.42,1.184-2.84,1.773-4.258
				c7.842-1.08,21.701-5.775,25.254-8.361c-0.639,1.502-1.246,3.014-1.756,4.545c-1.249,3.746-2.56,7.479-3.629,11.262
				c-1.846,6.525-3.21,13.129-3.219,19.857c-0.003,3.135,0.018,6.293,0.393,9.406c0.44,3.684,1.196,7.35,2.816,10.836
				c0.664,1.432,1.353,2.855,2.115,4.25c0.14,0.258,0.354,0.488,0.563,0.688c-2.036-0.434-4.044-0.926-6.129-1.277
				c-4.634-0.777-9.248-1.68-13.987-2.16c-6.546-0.662-13.202-1.273-19.815-0.084C-250.088,65.829-251.224,66.106-252.374,66.358z"
				/>
		</g>
		<g>
			<path fill="#0F75BC" stroke="#0F75BC" stroke-width="0.25" stroke-miterlimit="10" d="M-248.67,30.399
				c3.392-4.125,7.192-7.986,11.225-11.699c-0.19,0.229-0.396,0.455-0.583,0.686c-4.219,5.236-6.752,11.053-9.208,16.895
				c-1.564,3.721-3.233,7.424-4.587,11.195c-1.96,5.467-3.818,10.965-4.077,16.701c-0.007,0.113-0.06,0.229-0.048,0.338
				c0.033,0.316,0.081,0.629,0.124,0.941c-1.289-0.494-2.582-1.074-3.951-1.271c-3.468-0.492-6.979-0.779-10.501-0.264
				c-0.406,0.061-0.813,0.094-1.553,0.178c3.511-5.834,7.078-11.463,10.755-17.053C-257.306,41.31-253.107,35.8-248.67,30.399z"/>
			<path fill="#0F75BC" stroke="#0F75BC" stroke-width="0.25" stroke-miterlimit="10" d="M-271.441,66.292
				c4.088,0.555,7.991,1.105,11.909,1.605c6.133,0.787,12.271,1.572,18.42,2.305c5.695,0.676,11.391,1.352,17.111,1.898
				c3.719,0.352,7.467,0.49,11.204,0.676c1.024,0.047,2.054-0.006,3.08-0.037c-0.202,0.332-0.41,0.666-0.582,1
				c-0.313,0.615-0.547,1.236-0.547,1.871c-0.002,0.297,0.003,0.592,0.066,0.887c0.073,0.346,0.204,0.691,0.479,1.02
				c0.034,0.043,0.072,0.082,0.106,0.123c-1.568-0.078-3.128-0.18-4.662-0.379c-4.127-0.529-8.147-1.43-12.197-2.203
				c-5.098-0.975-10.193-1.908-15.554-2.068c-4.048-0.123-7.979,0.281-11.901,0.861c-2.397,0.357-4.714,0.854-6.989,1.412
				C-264.411,71.882-268.037,69.261-271.441,66.292z"/>
			<path fill="#0F75BC" stroke="#0F75BC" stroke-width="0.25" stroke-miterlimit="10" d="M-270.752,77.782
				c-0.438,0.125-0.797,0.365-1.191,0.549c0.073,0.09,0.143,0.184,0.22,0.277c1.72-0.469,3.409-0.984,5.159-1.395
				c4.275-1.002,8.502-2.119,12.878-2.875c4.363-0.75,8.91-1.072,13.434-0.586c3.301,0.357,6.589,0.807,9.824,1.359
				c4.957,0.844,9.803,2.002,14.808,2.678c3.995,0.539,8.159,0.557,12.251,0.777c0.442,0.025,0.913-0.148,1.369-0.23
				c-0.012-0.092-0.021-0.18-0.031-0.268c-0.75-0.059-1.497-0.129-2.249-0.172c-1.906-0.107-3.831-0.158-5.741-0.248
				c-0.156-0.227-0.309-0.449-0.427-0.678c-0.139-0.271-0.198-0.555-0.239-0.834c-0.089-0.6,0.021-1.197,0.277-1.783
				c0.203-0.461,0.468-0.912,0.728-1.365c0.049-0.088,0.107-0.17,0.164-0.256c0.124-0.002,0.25-0.008,0.374-0.01
				c-0.005-0.16-0.009-0.32-0.017-0.482c-0.011,0-0.025,0-0.039,0c-0.003-0.021-0.016-0.045-0.023-0.064
				c-0.048,0.02-0.116,0.035-0.143,0.057c-21.27-0.586-42.017-4.352-62.983-6.76c1.616-1.826,13.785-1.141,16.898,0.893
				c-0.064-0.291-0.019-0.773-0.208-0.846c-0.029-0.01-0.06-0.021-0.091-0.035c3.147-16.893,9.729-32.852,19.642-48.002
				c0.781-0.703,1.567-1.402,2.364-2.098c-0.156-0.119-0.31-0.236-0.465-0.352c-0.344,0.199-0.763,0.346-1.026,0.602
				c-3.502,3.389-7.165,6.678-10.419,10.221c-3.472,3.783-6.7,7.732-9.755,11.746c-2.759,3.631-5.19,7.426-7.69,11.188
				c-2.571,3.863-5.062,7.766-7.559,11.662c-0.599,0.932-1.028,1.938-1.646,2.857c-0.432,0.643-1.068,1.197-1.63,1.814
				c3.66,3.311,7.563,6.846,11.495,10.373C-265.238,76.208-267.989,77.011-270.752,77.782z M-271.83,64.099
				c3.511-5.834,7.078-11.463,10.755-17.053c3.769-5.736,7.968-11.246,12.405-16.646c3.392-4.125,7.192-7.986,11.225-11.699
				c-0.19,0.229-0.396,0.455-0.583,0.686c-4.219,5.236-6.752,11.053-9.208,16.895c-1.564,3.721-3.233,7.424-4.587,11.195
				c-1.96,5.467-3.818,10.965-4.077,16.701c-0.007,0.113-0.06,0.229-0.048,0.338c0.033,0.316,0.081,0.629,0.124,0.941
				c-1.289-0.494-2.582-1.074-3.951-1.271c-3.468-0.492-6.979-0.779-10.501-0.264C-270.684,63.981-271.09,64.015-271.83,64.099z
				 M-254.507,73.851c-2.397,0.357-4.714,0.854-6.989,1.412c-2.915-3.381-6.541-6.002-9.944-8.971
				c4.088,0.555,7.991,1.105,11.909,1.605c6.133,0.787,12.271,1.572,18.42,2.305c5.695,0.676,11.391,1.352,17.111,1.898
				c3.719,0.352,7.467,0.49,11.204,0.676c1.024,0.047,2.054-0.006,3.08-0.037c-0.202,0.332-0.41,0.666-0.582,1
				c-0.313,0.615-0.547,1.236-0.547,1.871c-0.002,0.297,0.003,0.592,0.066,0.887c0.073,0.346,0.204,0.691,0.479,1.02
				c0.034,0.043,0.072,0.082,0.106,0.123c-1.568-0.078-3.128-0.18-4.662-0.379c-4.127-0.529-8.147-1.43-12.197-2.203
				c-5.098-0.975-10.193-1.908-15.554-2.068C-246.654,72.866-250.586,73.271-254.507,73.851z"/>
		</g>
	</g>
</g>
<g id="Layer_1">
	<g>
		<path fill="#FFFFFF" d="M-194.926,79.077c-0.75,0.328-1.301,0.551-1.652,0.668c-2.484,0.961-5.086,1.441-7.805,1.441
			c-3.586,0-6.973-0.832-10.16-2.496c-3.188-1.688-5.719-3.984-7.594-6.891c-1.898-2.953-2.848-6.246-2.848-9.879
			c0-2.742,0.55-5.297,1.652-7.664c1.102-2.344,2.613-4.383,4.535-6.117c1.898-1.734,4.101-3.059,6.609-3.973
			c2.508-0.961,5.109-1.441,7.805-1.441c2.672,0,5.273,0.469,7.805,1.406s4.734,2.273,6.609,4.008
			c1.969,1.781,3.492,3.82,4.57,6.117c1.102,2.367,1.652,4.922,1.652,7.664l-0.035,18.316l-11.145-0.105V79.077z M-212.469,57.386
			c-0.867,1.383-1.301,2.895-1.301,4.535c0,2.484,0.937,4.629,2.813,6.434c1.851,1.781,4.043,2.672,6.574,2.672
			c2.554,0,4.758-0.891,6.609-2.672c1.875-1.805,2.813-3.949,2.813-6.434c0-1.641-0.434-3.152-1.301-4.535
			c-0.867-1.383-2.027-2.484-3.48-3.305c-1.43-0.797-2.977-1.195-4.641-1.195c-1.617,0-3.152,0.398-4.605,1.195
			C-210.442,54.901-211.603,56.003-212.469,57.386z"/>
		<path fill="#FFFFFF" d="M-140.75,62.202c-0.023,3.563-0.973,6.785-2.848,9.668c-1.875,2.93-4.407,5.227-7.594,6.891
			c-3.188,1.688-6.574,2.531-10.16,2.531c-2.742,0-5.344-0.48-7.805-1.441c-2.438-0.891-4.653-2.238-6.645-4.043
			c-1.969-1.805-3.493-3.867-4.57-6.188c-1.078-2.32-1.617-4.875-1.617-7.664c0-2.719,0.55-5.262,1.652-7.629
			c1.078-2.344,2.589-4.395,4.535-6.152c1.969-1.781,4.184-3.129,6.645-4.043c2.531-0.914,5.133-1.371,7.805-1.371
			c2.648,0,5.238,0.457,7.77,1.371l0.809,0.352l0.809,0.352V29.999l11.215,0.035V62.202z M-151.965,61.956
			c0-1.641-0.434-3.141-1.301-4.5c-0.867-1.383-2.027-2.484-3.48-3.305c-1.43-0.82-2.965-1.23-4.605-1.23
			c-1.641,0-3.188,0.41-4.641,1.23c-1.454,0.82-2.614,1.922-3.48,3.305c-0.867,1.359-1.301,2.859-1.301,4.5
			c0,2.508,0.937,4.664,2.813,6.469c1.851,1.805,4.055,2.707,6.609,2.707c2.531,0,4.723-0.902,6.574-2.707
			C-152.903,66.62-151.965,64.464-151.965,61.956z"/>
		<path fill="#FFFFFF" d="M-104.293,58.019v22.148h-11.285V58.019c-0.188-3.305-1.605-5.004-4.254-5.098h-0.633
			c-2.86,0.094-4.289,2.074-4.289,5.941v21.305h-11.25V58.862c0-10.195,5.18-15.574,15.539-16.137h0.633
			c4.125,0.234,7.43,1.219,9.914,2.953c2.461-1.734,5.753-2.719,9.879-2.953h0.633c10.359,0.563,15.539,5.941,15.539,16.137v21.305
			h-11.25V58.862c0-3.867-1.43-5.848-4.289-5.941h-0.633C-102.688,53.015-104.106,54.714-104.293,58.019z"/>
		<path fill="#FFFFFF" d="M-71.176,36.96c-0.516,0.867-1.219,1.57-2.109,2.109c-0.891,0.539-1.875,0.809-2.953,0.809
			c-1.078,0-2.051-0.258-2.918-0.773c-0.891-0.539-1.594-1.254-2.109-2.145c-0.54-0.938-0.809-1.934-0.809-2.988
			c0-1.078,0.258-2.063,0.773-2.953c0.563-0.914,1.277-1.629,2.145-2.145c0.867-0.516,1.84-0.773,2.918-0.773
			c1.078,0,2.062,0.258,2.953,0.773c0.867,0.516,1.57,1.23,2.109,2.145c0.515,0.891,0.773,1.875,0.773,2.953
			C-70.403,35.097-70.661,36.093-71.176,36.96z M-70.438,44.167v36.035h-11.215v-36L-70.438,44.167z"/>
		<path fill="#FFFFFF" d="M-53.106,52.886c-2.86,0.117-4.289,2.109-4.289,5.977v21.27h-11.25v-21.27
			c0-10.242,5.18-15.621,15.539-16.137h0.633c10.359,0.516,15.539,5.895,15.539,16.137v21.27h-11.25v-21.27
			c0-3.867-1.43-5.859-4.289-5.977H-53.106z"/>
		<path fill="#FFFFFF" d="M-27.758,53.729h-7.418l2.531-9.633h4.887V30.245l11.215,0.07v13.781h7.453l-2.496,9.633h-4.957v11.918
			c0,3.188,1.992,4.781,5.977,4.781c1.289,0,2.273-0.152,2.953-0.457l-3.234,11.18c-0.586,0.094-1.16,0.141-1.723,0.141
			c-3.352,0-6.141-0.539-8.367-1.617c-2.25-1.078-3.95-2.707-5.098-4.887c-1.148-2.156-1.723-4.91-1.723-8.262V53.729z"/>
		<path fill="#FFFFFF" d="M4.585,78.761c-3.188-1.688-5.719-3.996-7.594-6.926c-1.898-2.953-2.848-6.258-2.848-9.914
			c0-2.742,0.55-5.297,1.652-7.664c1.102-2.367,2.613-4.418,4.535-6.152c1.945-1.758,4.16-3.105,6.645-4.043
			c2.531-0.938,5.121-1.406,7.77-1.406c2.672,0,5.273,0.469,7.805,1.406c2.461,0.891,4.676,2.227,6.645,4.008
			c1.945,1.781,3.457,3.844,4.536,6.188c1.102,2.367,1.652,4.922,1.652,7.664c0,2.789-0.54,5.344-1.617,7.664
			c-1.079,2.344-2.602,4.418-4.571,6.223c-1.992,1.781-4.207,3.129-6.645,4.043c-2.461,0.961-5.063,1.441-7.805,1.441
			C11.16,81.292,7.772,80.448,4.585,78.761z M8.171,68.39c1.851,1.805,4.043,2.707,6.574,2.707c2.554,0,4.758-0.902,6.609-2.707
			c1.875-1.805,2.813-3.961,2.813-6.469c0-1.641-0.434-3.152-1.301-4.535c-0.867-1.383-2.027-2.484-3.48-3.305
			c-1.43-0.82-2.977-1.23-4.641-1.23c-1.617,0-3.152,0.41-4.605,1.23c-1.454,0.82-2.614,1.922-3.48,3.305
			c-0.867,1.383-1.301,2.895-1.301,4.535C5.359,64.429,6.296,66.585,8.171,68.39z"/>
		<path fill="#FFFFFF" d="M47.582,78.761c-3.188-1.688-5.719-3.996-7.594-6.926c-1.898-2.953-2.848-6.258-2.848-9.914
			c0-2.742,0.55-5.297,1.652-7.664c1.102-2.367,2.613-4.418,4.535-6.152c1.945-1.758,4.16-3.105,6.645-4.043
			c2.531-0.938,5.121-1.406,7.77-1.406c2.672,0,5.273,0.469,7.805,1.406c2.461,0.891,4.676,2.227,6.645,4.008
			c1.945,1.781,3.457,3.844,4.535,6.188c1.102,2.367,1.652,4.922,1.652,7.664c0,2.789-0.539,5.344-1.617,7.664
			c-1.078,2.344-2.602,4.418-4.57,6.223c-1.992,1.781-4.207,3.129-6.645,4.043c-2.461,0.961-5.063,1.441-7.805,1.441
			C54.156,81.292,50.77,80.448,47.582,78.761z M51.168,68.39c1.852,1.805,4.043,2.707,6.574,2.707c2.555,0,4.758-0.902,6.609-2.707
			c1.875-1.805,2.813-3.961,2.813-6.469c0-1.641-0.434-3.152-1.301-4.535s-2.027-2.484-3.48-3.305c-1.43-0.82-2.977-1.23-4.641-1.23
			c-1.617,0-3.152,0.41-4.605,1.23s-2.613,1.922-3.48,3.305s-1.301,2.895-1.301,4.535C48.355,64.429,49.293,66.585,51.168,68.39z"/>
		<path fill="#FFFFFF" d="M80.137,30.245l11.215-0.035v49.852l-11.215,0.141V30.245z"/>
		<path fill="#FFFFFF" d="M98.805,68.812c2.227,2.227,4.945,3.34,8.156,3.34c3.352,0,5.027-0.984,5.027-2.953
			c0-1.031-0.926-1.793-2.777-2.285c-1.313-0.305-3.398-0.832-6.258-1.582c-2.32-0.609-4.277-1.734-5.871-3.375
			c-1.57-1.617-2.355-4.102-2.355-7.453c0-2.578,0.645-4.758,1.934-6.539c1.313-1.781,3.012-3.094,5.098-3.938
			c2.133-0.867,4.465-1.301,6.996-1.301c1.43,0,2.883,0.199,4.359,0.598c1.594,0.492,3.023,1.102,4.289,1.828
			c1.383,0.773,2.602,1.641,3.656,2.602l-6.188,6.152c-1.805-1.359-3.773-2.039-5.906-2.039c-2.555,0-3.832,0.715-3.832,2.145
			c0,1.289,0.949,2.191,2.848,2.707c2.086,0.563,4.184,1.09,6.293,1.582c2.32,0.586,4.254,1.664,5.801,3.234
			c1.57,1.594,2.355,4.102,2.355,7.523c0,2.555-0.68,4.758-2.039,6.609c-1.359,1.875-3.176,3.27-5.449,4.184
			c-2.273,0.961-4.629,1.441-7.066,1.441c-2.039,0-3.879-0.164-5.52-0.492c-1.641-0.305-3.176-0.82-4.605-1.547
			c-1.477-0.727-3.023-1.699-4.641-2.918L98.805,68.812z"/>
	</g>
</g>
</svg>
