<?xml version="1.0" encoding="utf-8"?>
<!-- Generator: Adobe Illustrator 16.0.0, SVG Export Plug-In . SVG Version: 6.00 Build 0)  -->
<!DOCTYPE svg PUBLIC "-//W3C//DTD SVG 1.1//EN" "http://www.w3.org/Graphics/SVG/1.1/DTD/svg11.dtd">
<svg version="1.1" id="Layer_1" xmlns="http://www.w3.org/2000/svg" xmlns:xlink="http://www.w3.org/1999/xlink" x="0px" y="0px"
	 width="358.844px" height="95.246px" viewBox="0 0 358.844 95.246" enable-background="new 0 0 358.844 95.246"
	 xml:space="preserve">
<g id="Layer_3">
</g>
<g id="Layer_4">
	<g>
		<g>
			<path fill="#0F75BC" stroke="#0F75BC" stroke-width="0.25" stroke-miterlimit="10" d="M53.006,2.888
				c0.875-0.164,1.905-0.092,2.782,0.119c1.504,0.365,2.944,0.904,4.829,1.506c-1.46,0.082-2.688,0.383-3.741,0.152
				c-1.546-0.336-3.009-0.797-4.934-0.156C52.407,3.761,52.604,2.964,53.006,2.888z"/>
			<path fill="#0F75BC" stroke="#0F75BC" stroke-width="0.25" stroke-miterlimit="10" d="M31.429,54.207
				c1.479-3.554,3.069-7.081,4.611-10.616c1.606-3.68,3.253-7.348,4.817-11.039c1.633-3.869,3.177-7.76,4.782-11.633
				c0.588-1.42,1.184-2.84,1.772-4.258c7.842-1.08,21.701-5.775,25.254-8.361c-0.639,1.502-1.246,3.014-1.756,4.545
				c-1.249,3.746-2.56,7.479-3.629,11.262c-1.846,6.525-3.21,13.129-3.219,19.857c-0.003,3.135,0.018,6.293,0.393,9.407
				c0.44,3.684,1.196,7.35,2.816,10.836c0.664,1.432,1.353,2.854,2.115,4.25c0.14,0.258,0.354,0.487,0.563,0.688
				c-2.036-0.434-4.044-0.926-6.129-1.277c-4.634-0.777-9.248-1.68-13.987-2.16c-6.546-0.662-13.202-1.272-19.814-0.084
				c-1.173,0.207-2.31,0.484-3.459,0.736c0.141-0.355,0.275-0.711,0.423-1.066C28.459,61.597,29.891,57.888,31.429,54.207z"/>
			<path fill="#0F75BC" stroke="#0F75BC" stroke-width="0.25" stroke-miterlimit="10" d="M26.201,67.272
				c0.098-0.254,0.2-0.51,0.299-0.765c0.057,0.056,0.104,0.109,0.154,0.162c2.732-0.352,5.445-0.916,8.205-1.004
				c3.797-0.119,7.719-0.146,11.421,0.265c6.345,0.707,12.563,1.774,18.831,2.713c1.614,0.237,3.198,0.545,4.794,0.817
				c0.046-0.073,0.094-0.149,0.143-0.229c0.146,0.139,0.283,0.264,0.385,0.371c-1.352-3.688-2.94-7.395-4.022-11.199
				c-0.821-2.877-1.17-5.871-1.412-8.828c-0.519-6.361,0.127-12.695,1.637-18.936c1.182-4.873,2.749-9.682,4.268-14.5
				c0.814-2.59,1.909-5.121,2.836-7.688c0.099-0.271-0.084-0.613-0.136-0.92c-0.082,0.061-0.181,0.117-0.276,0.174
				c0.084-0.105,0.152-0.209,0.18-0.301c-0.489,0.156-0.809,0.207-1.051,0.342c-4.396,2.451-9.384,3.98-14.402,5.438
				c-3.263,0.951-6.581,1.779-9.857,2.691c-0.241,0.07-0.442,0.221-0.62,0.402c1.172-2.811,2.345-5.621,3.516-8.432
				c0.108-0.262,0.181-0.535,0.265-0.801c0.582-1.883,2.185-2.602,4.342-1.738c2.3,0.918,4.227,0.439,6.016-0.752
				c0.747-0.494,1.516-1.105,1.139-2.318c-0.608,0.2-1.139,0.336-1.616,0.541c-1.246,0.535-2.353,0.408-3.642-0.083
				c-1.22-0.457-2.659-0.67-4.009-0.695c-0.933-0.016-1.693,0.564-2.042,1.448c-2.688,6.852-5.39,13.699-8.173,20.523
				c-2.232,5.479-4.544,10.936-6.893,16.377c-2.015,4.664-4.188,9.28-6.171,13.954c-1.588,3.746-3.003,7.539-4.455,11.32
				c-0.188,0.496-0.111,1.055-0.154,1.584C25.866,67.228,26.033,67.251,26.201,67.272z M51.942,4.509
				c0.465-0.748,0.661-1.545,1.063-1.621c0.875-0.164,1.905-0.092,2.782,0.119c1.504,0.365,2.944,0.904,4.829,1.506
				c-1.46,0.082-2.689,0.383-3.741,0.152C55.33,4.329,53.867,3.868,51.942,4.509z M26.561,66.358
				c0.141-0.354,0.275-0.711,0.423-1.065c1.476-3.695,2.907-7.404,4.445-11.086c1.479-3.554,3.069-7.081,4.611-10.616
				c1.606-3.68,3.253-7.348,4.817-11.039c1.633-3.869,3.177-7.76,4.782-11.633c0.588-1.42,1.184-2.84,1.772-4.258
				c7.842-1.08,21.701-5.775,25.254-8.361c-0.639,1.502-1.246,3.014-1.756,4.545c-1.249,3.746-2.56,7.479-3.629,11.262
				c-1.846,6.525-3.21,13.129-3.219,19.857c-0.003,3.135,0.018,6.293,0.393,9.407c0.44,3.684,1.196,7.35,2.816,10.836
				c0.664,1.432,1.353,2.854,2.115,4.25c0.14,0.258,0.354,0.487,0.563,0.688c-2.036-0.434-4.044-0.926-6.129-1.277
				c-4.634-0.777-9.248-1.68-13.987-2.16c-6.546-0.662-13.202-1.272-19.814-0.084C28.846,65.83,27.711,66.106,26.561,66.358z"/>
		</g>
		<g>
			<path fill="#0F75BC" stroke="#0F75BC" stroke-width="0.25" stroke-miterlimit="10" d="M30.265,30.399
				c3.392-4.125,7.191-7.986,11.225-11.699c-0.19,0.229-0.396,0.455-0.583,0.686c-4.219,5.236-6.752,11.053-9.208,16.896
				c-1.564,3.721-3.233,7.424-4.587,11.195c-1.96,5.467-3.818,10.965-4.077,16.701c-0.007,0.113-0.06,0.229-0.048,0.338
				c0.033,0.316,0.081,0.629,0.124,0.941c-1.289-0.494-2.582-1.074-3.951-1.271c-3.468-0.492-6.979-0.779-10.501-0.264
				c-0.406,0.061-0.813,0.094-1.553,0.178c3.511-5.834,7.078-11.463,10.755-17.053C21.628,41.31,25.828,35.8,30.265,30.399z"/>
			<path fill="#0F75BC" stroke="#0F75BC" stroke-width="0.25" stroke-miterlimit="10" d="M7.494,66.292
				c4.088,0.555,7.991,1.104,11.909,1.604c6.133,0.787,12.271,1.571,18.42,2.306c5.695,0.676,11.391,1.352,17.111,1.897
				c3.719,0.353,7.467,0.489,11.204,0.676c1.023,0.048,2.054-0.006,3.079-0.036c-0.201,0.331-0.409,0.666-0.581,1
				c-0.313,0.614-0.548,1.235-0.548,1.87c-0.002,0.298,0.003,0.593,0.066,0.888c0.073,0.346,0.204,0.69,0.479,1.02
				c0.034,0.043,0.072,0.082,0.106,0.123c-1.568-0.078-3.128-0.18-4.662-0.379c-4.127-0.529-8.146-1.43-12.197-2.203
				c-5.098-0.975-10.192-1.908-15.554-2.068c-4.048-0.123-7.979,0.281-11.901,0.861c-2.396,0.357-4.714,0.854-6.988,1.412
				C14.523,71.882,10.897,69.261,7.494,66.292z"/>
			<path fill="#0F75BC" stroke="#0F75BC" stroke-width="0.25" stroke-miterlimit="10" d="M8.183,77.783
				c-0.438,0.125-0.797,0.364-1.191,0.549c0.073,0.09,0.143,0.184,0.22,0.276c1.721-0.469,3.409-0.983,5.159-1.396
				c4.275-1.002,8.502-2.119,12.878-2.875c4.363-0.75,8.91-1.071,13.435-0.586c3.301,0.357,6.589,0.808,9.823,1.359
				c4.957,0.844,9.804,2.002,14.809,2.678c3.995,0.539,8.159,0.558,12.251,0.777c0.441,0.025,0.913-0.148,1.369-0.23
				c-0.013-0.092-0.021-0.18-0.031-0.268c-0.75-0.059-1.497-0.129-2.249-0.172c-1.906-0.107-3.831-0.158-5.741-0.248
				c-0.156-0.227-0.309-0.449-0.427-0.678c-0.139-0.271-0.198-0.555-0.239-0.834c-0.089-0.6,0.021-1.197,0.277-1.783
				c0.203-0.461,0.468-0.912,0.728-1.365c0.049-0.088,0.107-0.17,0.164-0.256c0.124-0.002,0.25-0.008,0.374-0.01
				c-0.005-0.16-0.009-0.32-0.017-0.482c-0.011,0-0.025,0-0.039,0c-0.003-0.021-0.016-0.045-0.023-0.064
				c-0.048,0.021-0.115,0.035-0.143,0.058c-21.271-0.586-42.018-4.353-62.983-6.76c1.616-1.826,13.785-1.142,16.898,0.894
				c-0.064-0.291-0.02-0.773-0.208-0.847c-0.029-0.011-0.061-0.021-0.091-0.035c3.146-16.894,9.729-32.852,19.642-48.002
				c0.781-0.703,1.567-1.402,2.364-2.098c-0.156-0.119-0.311-0.236-0.465-0.352c-0.345,0.199-0.764,0.346-1.026,0.602
				c-3.502,3.389-7.165,6.678-10.419,10.221c-3.472,3.783-6.7,7.732-9.755,11.746c-2.759,3.631-5.19,7.426-7.69,11.188
				c-2.57,3.862-5.062,7.766-7.559,11.662C7.678,61.384,7.249,62.39,6.63,63.31C6.198,63.953,5.562,64.507,5,65.125
				c3.66,3.311,7.563,6.846,11.495,10.373C13.696,76.208,10.946,77.011,8.183,77.783z M7.104,64.099
				c3.511-5.834,7.078-11.463,10.755-17.053C21.628,41.31,25.827,35.8,30.264,30.4c3.392-4.125,7.191-7.986,11.225-11.699
				c-0.19,0.229-0.396,0.455-0.583,0.686c-4.219,5.236-6.752,11.053-9.208,16.895c-1.564,3.721-3.233,7.424-4.587,11.195
				c-1.96,5.467-3.818,10.965-4.077,16.7c-0.007,0.113-0.06,0.23-0.048,0.339c0.033,0.315,0.081,0.629,0.124,0.94
				c-1.289-0.494-2.582-1.074-3.951-1.271c-3.468-0.492-6.979-0.778-10.501-0.265C8.251,63.981,7.845,64.015,7.104,64.099z
				 M24.427,73.851c-2.396,0.357-4.714,0.854-6.988,1.412c-2.915-3.381-6.541-6.002-9.944-8.971
				c4.088,0.555,7.991,1.104,11.909,1.604c6.133,0.787,12.271,1.571,18.42,2.306c5.695,0.676,11.391,1.352,17.111,1.897
				c3.719,0.353,7.467,0.489,11.204,0.676c1.023,0.048,2.054-0.006,3.079-0.036c-0.201,0.331-0.409,0.666-0.581,1
				c-0.313,0.614-0.548,1.235-0.548,1.87c-0.002,0.298,0.003,0.593,0.066,0.888c0.073,0.346,0.204,0.69,0.479,1.02
				c0.034,0.043,0.072,0.082,0.106,0.123c-1.568-0.078-3.128-0.18-4.662-0.379c-4.127-0.529-8.146-1.43-12.197-2.203
				c-5.098-0.975-10.192-1.908-15.554-2.068C32.28,72.867,28.349,73.271,24.427,73.851z"/>
		</g>
	</g>
</g>
<g id="Layer_1_1_">
	<g>
		<path fill="#FFFFFF" d="M269.439,83.431l1.869-0.006v8.309l-1.869,0.023V83.431z"/>
		<path fill="#FFFFFF" d="M271.602,83.431l1.869-0.006v8.309l-1.869,0.023V83.431z"/>
		<path fill="#FFFFFF" d="M276.84,87.31c-0.098-0.066-0.225-0.104-0.381-0.111h-0.104c-0.478,0.02-0.715,0.352-0.715,0.996v3.551
			h-1.875v-3.551c0-1.707,0.862-2.604,2.59-2.689h0.104c0.129,0.004,0.256,0.017,0.381,0.035V87.31z"/>
		<path fill="#FFFFFF" d="M279.928,87.345h-1.236l0.422-1.605h0.814v-2.309l1.868,0.012v2.297h1.242l-0.416,1.605h-0.826v1.986
			c0,0.53,0.332,0.797,0.996,0.797c0.215,0,0.379-0.025,0.492-0.076l-0.539,1.863c-0.098,0.016-0.192,0.022-0.287,0.022
			c-0.559,0-1.022-0.09-1.395-0.271c-0.375-0.18-0.658-0.451-0.851-0.813c-0.19-0.358-0.286-0.817-0.286-1.377L279.928,87.345
			L279.928,87.345z"/>
		<path fill="#FFFFFF" d="M289.9,87.438c0.176,0.396,0.264,0.815,0.264,1.267v0.053c0,0.02-0.002,0.041-0.006,0.063l-0.012,0.101
			h-0.728v0.012h-4.03c0.047,0.328,0.188,0.611,0.428,0.85c0.301,0.297,0.651,0.445,1.055,0.445c0.406,0,0.758-0.148,1.055-0.445
			l0.013-0.012l0.018-0.023l0.019-0.018l0.012-0.018l1.008,1.44c-0.289,0.234-0.582,0.412-0.879,0.533
			c-0.398,0.155-0.813,0.233-1.242,0.233c-0.582,0-1.123-0.139-1.623-0.416c-0.512-0.28-0.916-0.666-1.213-1.153
			c-0.305-0.488-0.457-1.037-0.457-1.646c0-0.457,0.088-0.879,0.264-1.267c0.177-0.392,0.419-0.729,0.728-1.021
			c0.313-0.297,0.664-0.521,1.055-0.674c0.402-0.156,0.818-0.234,1.248-0.234s0.844,0.078,1.242,0.234
			c0.395,0.152,0.748,0.375,1.061,0.668C289.482,86.699,289.725,87.041,289.9,87.438z M286.871,87.205
			c-0.262,0-0.508,0.065-0.738,0.198c-0.141,0.087-0.276,0.207-0.409,0.363h2.297c-0.133-0.156-0.271-0.276-0.41-0.363
			C287.379,87.271,287.133,87.205,286.871,87.205z"/>
		<path fill="#FFFFFF" d="M295.074,87.556c-0.168-0.141-0.352-0.246-0.551-0.316c-0.207-0.07-0.426-0.105-0.656-0.105
			c-0.43,0-0.793,0.14-1.09,0.416c-0.301,0.277-0.451,0.621-0.451,1.031c0,0.32,0.064,0.607,0.193,0.861
			c0.125,0.254,0.311,0.455,0.557,0.604c0.238,0.152,0.514,0.229,0.826,0.229c0.461,0,0.854-0.146,1.184-0.438l1.025,1.301
			c-0.148,0.156-0.355,0.295-0.621,0.416c-0.27,0.121-0.547,0.211-0.832,0.27s-0.549,0.088-0.791,0.088
			c-0.68,0-1.279-0.143-1.799-0.428c-0.521-0.289-0.918-0.668-1.195-1.137c-0.276-0.477-0.416-0.986-0.416-1.529
			c0-0.496,0.084-0.945,0.252-1.348c0.172-0.41,0.408-0.762,0.709-1.055c0.297-0.285,0.658-0.511,1.084-0.674
			c0.422-0.16,0.877-0.24,1.365-0.24c0.398,0,0.787,0.063,1.166,0.188c0.383,0.129,0.721,0.311,1.014,0.545L295.074,87.556z"/>
		<path fill="#FFFFFF" d="M298.279,83.425v2.672c0.18-0.184,0.402-0.328,0.668-0.434c0.27-0.105,0.543-0.158,0.82-0.158
			c1.504,0,2.256,0.881,2.256,2.643v3.598l-1.875,0.006v-3.475c0-0.359-0.082-0.629-0.246-0.809s-0.396-0.27-0.691-0.27
			c-0.289,0-0.516,0.09-0.68,0.27c-0.168,0.18-0.252,0.449-0.252,0.809v3.469l-1.875,0.012v-8.325L298.279,83.425z"/>
		<path fill="#FFFFFF" d="M304.906,87.205c-0.477,0.02-0.715,0.352-0.715,0.996v3.545h-1.875v-3.545c0-1.707,0.863-2.604,2.59-2.689
			h0.105c1.727,0.086,2.59,0.982,2.59,2.689v3.545h-1.875v-3.545c0-0.646-0.238-0.978-0.715-0.996H304.906z"/>
		<path fill="#FFFFFF" d="M309.635,91.517c-0.53-0.281-0.952-0.666-1.266-1.154c-0.315-0.492-0.475-1.043-0.475-1.652
			c0-0.457,0.092-0.883,0.274-1.276c0.184-0.394,0.437-0.735,0.756-1.024c0.324-0.293,0.693-0.519,1.107-0.675
			c0.422-0.155,0.854-0.233,1.295-0.233c0.445,0,0.879,0.078,1.301,0.233c0.41,0.147,0.779,0.371,1.107,0.668
			c0.324,0.298,0.576,0.642,0.756,1.031c0.184,0.396,0.275,0.819,0.275,1.276c0,0.465-0.091,0.892-0.271,1.277
			c-0.18,0.391-0.434,0.736-0.762,1.037c-0.332,0.297-0.701,0.521-1.107,0.674c-0.41,0.16-0.844,0.24-1.301,0.24
			C310.73,91.938,310.166,91.798,309.635,91.517z M310.232,89.789c0.309,0.301,0.674,0.451,1.096,0.451
			c0.426,0,0.793-0.15,1.103-0.451c0.313-0.302,0.469-0.66,0.469-1.078c0-0.273-0.072-0.525-0.217-0.756
			c-0.146-0.231-0.339-0.414-0.58-0.552c-0.238-0.137-0.496-0.204-0.773-0.204c-0.27,0-0.524,0.067-0.768,0.204
			c-0.243,0.138-0.437,0.32-0.58,0.552c-0.145,0.23-0.217,0.481-0.217,0.756C309.764,89.128,309.92,89.487,310.232,89.789z"/>
		<path fill="#FFFFFF" d="M315.061,83.431l1.869-0.006v8.309l-1.869,0.023V83.431z"/>
		<path fill="#FFFFFF" d="M318.963,91.517c-0.53-0.281-0.953-0.666-1.266-1.154c-0.316-0.492-0.475-1.043-0.475-1.652
			c0-0.457,0.092-0.883,0.274-1.276c0.184-0.394,0.437-0.735,0.756-1.024c0.324-0.293,0.693-0.519,1.107-0.675
			c0.422-0.155,0.854-0.233,1.295-0.233c0.445,0,0.879,0.078,1.301,0.233c0.41,0.147,0.779,0.371,1.107,0.668
			c0.324,0.298,0.576,0.642,0.756,1.031c0.184,0.396,0.275,0.819,0.275,1.276c0,0.465-0.091,0.892-0.271,1.277
			c-0.18,0.391-0.434,0.736-0.762,1.037c-0.332,0.297-0.701,0.521-1.107,0.674c-0.41,0.16-0.844,0.24-1.301,0.24
			C320.059,91.938,319.494,91.798,318.963,91.517z M319.561,89.789c0.309,0.301,0.674,0.451,1.096,0.451
			c0.426,0,0.793-0.15,1.102-0.451c0.313-0.302,0.47-0.66,0.47-1.078c0-0.273-0.072-0.525-0.218-0.756
			c-0.145-0.231-0.338-0.414-0.579-0.552c-0.238-0.137-0.496-0.204-0.773-0.204c-0.27,0-0.525,0.067-0.768,0.204
			c-0.243,0.138-0.437,0.32-0.58,0.552c-0.145,0.23-0.218,0.481-0.218,0.756C319.092,89.128,319.248,89.487,319.561,89.789z"/>
		<path fill="#FFFFFF" d="M330.934,88.763l-0.007,3.176v0.434c0,0.771-0.272,1.428-0.819,1.976
			c-0.254,0.254-0.594,0.454-1.021,0.604c-0.397,0.141-0.793,0.211-1.184,0.211h-0.328c-0.891-0.021-1.6-0.291-2.127-0.814
			c-0.355-0.363-0.57-0.682-0.645-0.955l1.786-1.037c0.021,0.309,0.144,0.57,0.369,0.785c0.227,0.215,0.496,0.322,0.81,0.322
			c0.246,0,0.471-0.07,0.674-0.211c0.199-0.137,0.342-0.313,0.428-0.527l0.006-0.023l0.013-0.029
			c0.008-0.026,0.016-0.055,0.022-0.082c0.016-0.047,0.025-0.094,0.029-0.141v-0.018l0.006-0.018l0.006-0.023v-0.035h0.006v-0.615
			l-0.047,0.023l-0.047,0.018c-0.391,0.16-0.801,0.24-1.23,0.24c-0.569,0-1.104-0.143-1.6-0.428
			c-0.496-0.277-0.895-0.666-1.195-1.166c-0.3-0.5-0.45-1.057-0.45-1.67c0-0.465,0.088-0.895,0.264-1.289
			c0.168-0.391,0.406-0.738,0.715-1.043c0.301-0.289,0.648-0.514,1.043-0.674c0.398-0.16,0.807-0.24,1.226-0.24
			c0.727,0,1.266,0.094,1.616,0.281C330.373,86.272,330.934,87.263,330.934,88.763z M326.686,89.8
			c0.309,0.301,0.664,0.451,1.065,0.451c0.406,0,0.765-0.15,1.072-0.451c0.305-0.297,0.457-0.654,0.457-1.072
			c0-0.266-0.07-0.516-0.211-0.75s-0.328-0.418-0.563-0.551c-0.237-0.133-0.489-0.199-0.756-0.199c-0.266,0-0.514,0.066-0.744,0.199
			c-0.233,0.133-0.424,0.316-0.567,0.551c-0.142,0.234-0.211,0.484-0.211,0.75C326.229,89.146,326.381,89.503,326.686,89.8z"/>
		<path fill="#FFFFFF" d="M333.043,84.55c-0.086,0.145-0.203,0.262-0.352,0.352c-0.149,0.09-0.313,0.135-0.492,0.135
			s-0.342-0.043-0.486-0.129c-0.147-0.09-0.266-0.209-0.352-0.357c-0.09-0.155-0.135-0.321-0.135-0.498
			c0-0.18,0.043-0.344,0.129-0.491c0.094-0.151,0.213-0.271,0.356-0.356c0.145-0.086,0.308-0.129,0.486-0.129
			s0.344,0.043,0.492,0.129c0.145,0.086,0.262,0.205,0.352,0.356c0.086,0.147,0.129,0.313,0.129,0.491
			C333.172,84.24,333.129,84.406,333.043,84.55z M333.166,85.751v6.006h-1.869v-6L333.166,85.751z"/>
		<path fill="#FFFFFF" d="M339.787,87.438c0.176,0.396,0.264,0.815,0.264,1.267v0.053c0,0.02-0.002,0.041-0.006,0.063l-0.012,0.101
			h-0.727v0.012h-4.031c0.047,0.328,0.188,0.611,0.428,0.85c0.301,0.297,0.652,0.445,1.055,0.445c0.406,0,0.759-0.148,1.056-0.445
			l0.012-0.012l0.018-0.023l0.019-0.018l0.012-0.018l1.008,1.44c-0.289,0.234-0.582,0.412-0.879,0.533
			c-0.397,0.155-0.813,0.233-1.242,0.233c-0.582,0-1.122-0.139-1.622-0.416c-0.513-0.28-0.916-0.666-1.214-1.153
			c-0.305-0.488-0.457-1.037-0.457-1.646c0-0.457,0.089-0.879,0.265-1.267c0.176-0.392,0.418-0.729,0.727-1.021
			c0.313-0.297,0.664-0.521,1.056-0.674c0.401-0.156,0.817-0.234,1.247-0.234c0.431,0,0.845,0.078,1.242,0.234
			c0.396,0.152,0.748,0.375,1.062,0.668C339.369,86.699,339.611,87.041,339.787,87.438z M336.758,87.205
			c-0.262,0-0.508,0.065-0.737,0.198c-0.142,0.087-0.277,0.207-0.41,0.363h2.297c-0.133-0.156-0.27-0.276-0.41-0.363
			C337.266,87.271,337.02,87.205,336.758,87.205z"/>
		<path fill="#FFFFFF" d="M341.293,89.858c0.371,0.371,0.824,0.558,1.359,0.558c0.559,0,0.838-0.164,0.838-0.492
			c0-0.172-0.154-0.299-0.463-0.381c-0.219-0.051-0.566-0.14-1.043-0.265c-0.387-0.103-0.713-0.288-0.979-0.563
			c-0.262-0.27-0.393-0.684-0.393-1.241c0-0.431,0.106-0.793,0.322-1.091c0.219-0.297,0.502-0.516,0.85-0.655
			c0.355-0.146,0.744-0.218,1.166-0.218c0.238,0,0.48,0.033,0.727,0.101c0.267,0.082,0.505,0.185,0.716,0.306
			c0.229,0.129,0.434,0.272,0.608,0.434l-1.031,1.025c-0.301-0.228-0.629-0.34-0.983-0.34c-0.426,0-0.639,0.118-0.639,0.356
			c0,0.215,0.157,0.364,0.475,0.45c0.348,0.095,0.697,0.183,1.049,0.265c0.387,0.099,0.709,0.276,0.967,0.539
			c0.263,0.267,0.394,0.685,0.394,1.254c0,0.427-0.113,0.793-0.34,1.103c-0.228,0.313-0.529,0.545-0.908,0.697
			c-0.379,0.159-0.771,0.239-1.178,0.239c-0.341,0-0.646-0.026-0.921-0.082c-0.272-0.051-0.528-0.138-0.768-0.258
			c-0.246-0.121-0.504-0.283-0.773-0.486L341.293,89.858z"/>
		<path fill="#FFFFFF" d="M345.67,90.298c0.103-0.164,0.232-0.291,0.394-0.381c0.164-0.094,0.338-0.142,0.521-0.142
			c0.184,0,0.357,0.048,0.521,0.142c0.16,0.098,0.289,0.227,0.387,0.387c0.098,0.156,0.146,0.328,0.146,0.516
			c0,0.313-0.103,0.57-0.306,0.773c-0.207,0.207-0.457,0.311-0.75,0.311c-0.194,0-0.373-0.047-0.533-0.141
			c-0.163-0.094-0.293-0.225-0.387-0.393c-0.094-0.172-0.141-0.355-0.141-0.552C345.523,90.628,345.572,90.455,345.67,90.298z"/>
	</g>
	<g>
		<path fill="#FFFFFF" d="M70.727,52.886c-2.859,0.117-4.289,2.109-4.289,5.977v21.27h-11.25v-21.27
			c0-10.242,5.18-15.621,15.539-16.137h0.633c10.358,0.516,15.539,5.895,15.539,16.137v21.27h-11.25v-21.27
			c0-3.867-1.431-5.859-4.289-5.977H70.727z"/>
		<path fill="#FFFFFF" d="M126.59,54.292c1.056,2.367,1.582,4.897,1.582,7.594v0.316c0,0.116-0.012,0.246-0.034,0.387l-0.07,0.598
			h-4.359v0.07H99.52c0.28,1.969,1.137,3.668,2.565,5.098c1.806,1.781,3.914,2.672,6.328,2.672c2.438,0,4.547-0.891,6.328-2.672
			l0.07-0.07l0.104-0.141l0.105-0.105l0.069-0.104l6.048,8.647c-1.734,1.406-3.492,2.474-5.273,3.199
			c-2.391,0.938-4.875,1.406-7.453,1.406c-3.492,0-6.738-0.832-9.738-2.496c-3.069-1.688-5.495-3.996-7.276-6.926
			c-1.828-2.93-2.742-6.223-2.742-9.879c0-2.742,0.527-5.273,1.582-7.594c1.055-2.344,2.508-4.383,4.359-6.117
			c1.875-1.781,3.983-3.129,6.327-4.043c2.414-0.938,4.91-1.406,7.488-1.406s5.063,0.469,7.453,1.406
			c2.367,0.914,4.488,2.25,6.363,4.008C124.082,49.851,125.535,51.901,126.59,54.292z M108.414,52.886
			c-1.57,0-3.047,0.398-4.43,1.195c-0.844,0.516-1.664,1.242-2.461,2.18h13.781c-0.798-0.938-1.617-1.664-2.462-2.18
			C111.461,53.285,109.984,52.886,108.414,52.886z"/>
		<path fill="#FFFFFF" d="M137.348,53.729h-7.418l2.53-9.633h4.888V30.245l11.215,0.07v13.781h7.453l-2.496,9.633h-4.957v11.918
			c0,3.188,1.992,4.78,5.977,4.78c1.289,0,2.273-0.151,2.953-0.456l-3.234,11.18c-0.586,0.095-1.159,0.142-1.723,0.142
			c-3.352,0-6.141-0.539-8.367-1.617c-2.25-1.078-3.948-2.707-5.098-4.887c-1.148-2.156-1.723-4.91-1.723-8.263V53.729
			L137.348,53.729z"/>
		<path fill="#FFFFFF" d="M186.953,54.996c-1.008-0.845-2.109-1.478-3.305-1.898c-1.242-0.422-2.556-0.633-3.938-0.633
			c-2.578,0-4.758,0.832-6.539,2.496c-1.805,1.664-2.707,3.727-2.707,6.188c0,1.922,0.388,3.645,1.16,5.168
			c0.75,1.523,1.863,2.73,3.34,3.621c1.431,0.914,3.082,1.371,4.957,1.371c2.767,0,5.134-0.879,7.103-2.637l6.151,7.805
			c-0.891,0.938-2.133,1.77-3.727,2.496c-1.617,0.727-3.281,1.266-4.992,1.617c-1.711,0.351-3.293,0.527-4.746,0.527
			c-4.078,0-7.676-0.855-10.793-2.566c-3.117-1.734-5.508-4.008-7.172-6.82c-1.664-2.859-2.496-5.918-2.496-9.176
			c0-2.977,0.504-5.672,1.512-8.086c1.031-2.461,2.449-4.57,4.255-6.328c1.78-1.711,3.948-3.059,6.504-4.043
			c2.53-0.961,5.262-1.441,8.19-1.441c2.392,0,4.724,0.375,6.996,1.125c2.297,0.773,4.324,1.863,6.082,3.27L186.953,54.996z"/>
		<path fill="#FFFFFF" d="M228.93,54.292c1.055,2.367,1.582,4.897,1.582,7.594v0.316c0,0.116-0.013,0.246-0.035,0.387l-0.07,0.598
			h-4.359v0.07H201.86c0.281,1.969,1.137,3.668,2.565,5.098c1.806,1.781,3.914,2.672,6.328,2.672c2.438,0,4.547-0.891,6.328-2.672
			l0.07-0.07l0.104-0.141l0.105-0.105l0.07-0.104l6.047,8.647c-1.734,1.406-3.492,2.474-5.273,3.199
			c-2.391,0.938-4.875,1.406-7.453,1.406c-3.492,0-6.737-0.832-9.737-2.496c-3.07-1.688-5.496-3.996-7.277-6.926
			c-1.828-2.93-2.742-6.223-2.742-9.879c0-2.742,0.527-5.273,1.582-7.594c1.055-2.344,2.508-4.383,4.359-6.117
			c1.875-1.781,3.983-3.129,6.328-4.043c2.414-0.938,4.909-1.406,7.487-1.406s5.063,0.469,7.453,1.406
			c2.367,0.914,4.488,2.25,6.363,4.008C226.422,49.851,227.875,51.901,228.93,54.292z M210.754,52.886
			c-1.569,0-3.047,0.398-4.43,1.195c-0.844,0.516-1.664,1.242-2.461,2.18h13.781c-0.797-0.938-1.617-1.664-2.461-2.18
			C213.801,53.285,212.324,52.886,210.754,52.886z"/>
		<path fill="#FFFFFF" d="M247.809,52.886c-2.859,0.117-4.289,2.109-4.289,5.977v21.27h-11.25v-21.27
			c0-10.242,5.18-15.621,15.539-16.137h0.633c10.358,0.516,15.539,5.895,15.539,16.137v21.27h-11.25v-21.27
			c0-3.867-1.431-5.859-4.289-5.977H247.809z"/>
		<path fill="#FFFFFF" d="M273.156,53.729h-7.418l2.531-9.633h4.887V30.245l11.215,0.07v13.781h7.453l-2.496,9.633h-4.957v11.918
			c0,3.188,1.992,4.78,5.978,4.78c1.289,0,2.272-0.151,2.952-0.456l-3.233,11.18c-0.586,0.095-1.16,0.142-1.724,0.142
			c-3.352,0-6.141-0.539-8.366-1.617c-2.25-1.078-3.949-2.707-5.099-4.887c-1.147-2.156-1.723-4.91-1.723-8.263V53.729z"/>
		<path fill="#FFFFFF" d="M332.992,54.292c1.055,2.367,1.582,4.897,1.582,7.594v0.316c0,0.116-0.012,0.246-0.035,0.387l-0.07,0.598
			h-4.358v0.07h-24.188c0.281,1.969,1.138,3.668,2.566,5.098c1.805,1.781,3.914,2.672,6.328,2.672c2.438,0,4.547-0.891,6.328-2.672
			l0.069-0.07l0.105-0.141l0.104-0.105l0.07-0.104l6.047,8.647c-1.733,1.406-3.492,2.474-5.272,3.199
			c-2.392,0.938-4.875,1.406-7.453,1.406c-3.492,0-6.738-0.832-9.738-2.496c-3.07-1.688-5.496-3.996-7.277-6.926
			c-1.827-2.93-2.741-6.223-2.741-9.879c0-2.742,0.526-5.273,1.582-7.594c1.055-2.344,2.508-4.383,4.358-6.117
			c1.875-1.781,3.984-3.129,6.328-4.043c2.414-0.938,4.91-1.406,7.488-1.406s5.063,0.469,7.453,1.406
			c2.367,0.914,4.487,2.25,6.362,4.008C330.484,49.851,331.938,51.901,332.992,54.292z M314.816,52.886
			c-1.57,0-3.047,0.398-4.43,1.195c-0.845,0.516-1.664,1.242-2.462,2.18h13.781c-0.797-0.938-1.617-1.664-2.461-2.18
			C317.863,53.285,316.387,52.886,314.816,52.886z"/>
		<path fill="#FFFFFF" d="M354.789,53.519c-0.586-0.398-1.348-0.621-2.285-0.668h-0.633c-2.858,0.117-4.289,2.109-4.289,5.977
			v21.305h-11.25V58.828c0-10.242,5.181-15.622,15.539-16.138h0.633c0.773,0.023,1.535,0.094,2.285,0.211V53.519z"/>
	</g>
</g>
</svg>
