<?xml version="1.0" encoding="utf-8"?>
<!-- Generator: Adobe Illustrator 16.0.0, SVG Export Plug-In . SVG Version: 6.00 Build 0)  -->
<!DOCTYPE svg PUBLIC "-//W3C//DTD SVG 1.1//EN" "http://www.w3.org/Graphics/SVG/1.1/DTD/svg11.dtd">
<svg version="1.1" id="Capa_1" xmlns="http://www.w3.org/2000/svg" xmlns:xlink="http://www.w3.org/1999/xlink" x="0px" y="0px"
	 width="612px" height="612px" viewBox="0 0 612 612" enable-background="new 0 0 612 612" xml:space="preserve">
<g>
	<g>
		<path fill="#DC3232" d="M554.324,554.324c76.901-76.902,76.899-202.023-0.001-278.926
			c-52.528-52.528-129.938-70.772-200.167-48.029L132.04,5.253c-3.363-3.361-7.915-5.252-12.679-5.252L17.929,0
			C8.019,0.001,0,8.021,0,17.932v101.431c0,4.763,1.891,9.316,5.252,12.677l25.372,25.354c3.869,3.871,9.297,5.76,14.744,5.131
			l27.245-3.152l3.555,37.75c0.805,8.58,7.582,15.355,16.161,16.162l37.751,3.555l-3.169,27.245
			c-0.684,5.06,1.015,10.155,4.412,13.991c3.413,3.816,8.282,6.004,13.394,6.005l33.384-0.001v32.777
			c0,4.762,1.892,9.315,5.252,12.679l45.372,45.979c-22.762,70.211-5.892,146.281,46.674,198.813
			C352.298,631.225,477.423,631.225,554.324,554.324z M427.538,503.6c-20.978-20.977-20.979-55.084-0.001-76.061
			c20.979-20.977,55.086-20.977,76.063,0c20.978,20.977,20.977,55.086-0.001,76.063C482.622,524.578,448.515,524.576,427.538,503.6z
			"/>
	</g>
</g>
</svg>
